<svg xmlns="http://www.w3.org/2000/svg" width="400" height="400" viewBox="0 0 400 400" version="1.1"><path d="M 73.410 51.134 C 66.820 52.617, 58.866 57.966, 55.277 63.329 C 50.922 69.837, 50.012 73.706, 50.006 85.750 L 50 96 202.603 96 L 355.206 96 354.853 83.750 C 354.521 72.224, 354.317 71.175, 351.401 66 C 349.610 62.822, 346.277 58.955, 343.504 56.840 C 334.043 49.625, 341.635 49.988, 202.434 50.107 C 130.451 50.169, 75.767 50.604, 73.410 51.134 M 53.946 54.750 L 50.500 58.500 54.250 55.054 C 56.313 53.158, 58 51.471, 58 51.304 C 58 50.540, 57.154 51.260, 53.946 54.750 M 350 54.500 C 351.866 56.425, 353.617 58, 353.892 58 C 354.167 58, 352.866 56.425, 351 54.500 C 349.134 52.575, 347.383 51, 347.108 51 C 346.833 51, 348.134 52.575, 350 54.500 M 85.615 62.088 C 75.406 70.118, 80.449 86.011, 93.200 85.996 C 104.787 85.983, 110.260 71.208, 101.613 63.284 C 98.586 60.510, 97.271 60, 93.150 60 C 89.715 60, 87.483 60.619, 85.615 62.088 M 43.240 124.667 C 43.053 162.882, 42.722 173.946, 41.750 174.338 C 40.771 174.733, 40.778 174.859, 41.781 174.921 C 42.486 174.964, 43.278 174.438, 43.542 173.750 C 43.805 173.063, 43.899 150.675, 43.751 124 L 43.480 75.500 43.240 124.667 M 361.485 124.917 C 361.498 167.986, 361.693 174.386, 363 174.743 C 364.101 175.043, 364.170 174.918, 363.260 174.273 C 362.308 173.598, 361.955 162.005, 361.745 124.447 L 361.471 75.500 361.485 124.917 M 151.924 117.750 L 149.500 120.500 152.250 118.076 C 154.820 115.810, 155.459 115, 154.674 115 C 154.495 115, 153.258 116.237, 151.924 117.750 M 179.269 144.693 C 180.242 144.947, 181.592 144.930, 182.269 144.656 C 182.946 144.382, 182.150 144.175, 180.500 144.195 C 178.850 144.215, 178.296 144.439, 179.269 144.693 M 222.269 144.693 C 223.242 144.947, 224.592 144.930, 225.269 144.656 C 225.946 144.382, 225.150 144.175, 223.500 144.195 C 221.850 144.215, 221.296 144.439, 222.269 144.693 M 185.924 147.250 L 188.349 150 201.924 149.782 L 215.500 149.563 202.032 149.251 C 189.792 148.967, 188.333 148.737, 186.032 146.719 L 183.500 144.500 185.924 147.250 M 193.250 168.745 C 198.062 168.928, 205.937 168.928, 210.750 168.745 C 215.563 168.561, 211.625 168.411, 202 168.411 C 192.375 168.411, 188.438 168.561, 193.250 168.745 M 27.457 228.500 C 27.456 251.050, 27.588 260.418, 27.749 249.317 C 27.909 238.216, 27.910 219.766, 27.749 208.317 C 27.589 196.868, 27.457 205.950, 27.457 228.500 M 377.457 229 C 377.457 251.825, 377.588 261.163, 377.749 249.750 C 377.909 238.338, 377.909 219.663, 377.749 208.250 C 377.588 196.838, 377.457 206.175, 377.457 229 M 33.454 229 C 33.454 250.175, 33.587 258.838, 33.749 248.250 C 33.911 237.663, 33.911 220.338, 33.749 209.750 C 33.587 199.163, 33.454 207.825, 33.454 229 M 371.454 229 C 371.454 250.175, 371.587 258.838, 371.749 248.250 C 371.911 237.663, 371.911 220.338, 371.749 209.750 C 371.587 199.163, 371.454 207.825, 371.454 229 M 307.425 229 C 307.425 240.825, 307.569 245.662, 307.746 239.750 C 307.923 233.838, 307.923 224.162, 307.746 218.250 C 307.569 212.338, 307.425 217.175, 307.425 229 M 249.500 217.670 C 247.300 219.642, 246.400 220.790, 247.500 220.220 C 249.353 219.260, 254.876 213.948, 253.924 214.042 C 253.691 214.065, 251.700 215.697, 249.500 217.670 M 83.413 238.500 C 83.414 248.400, 83.564 252.315, 83.746 247.199 C 83.928 242.084, 83.927 233.984, 83.744 229.199 C 83.561 224.415, 83.412 228.600, 83.413 238.500 M 248 238.313 C 248 238.485, 249.463 239.948, 251.250 241.563 L 254.500 244.500 251.563 241.250 C 248.825 238.221, 248 237.540, 248 238.313 M 159.299 243.960 C 153.012 247.793, 153 247.882, 153 290.482 C 153 332.538, 153.187 334.110, 158.621 337.672 C 161.178 339.349, 164.597 339.524, 199.941 339.795 C 244.595 340.138, 245.748 339.969, 249.082 332.628 C 250.810 328.822, 250.953 325.571, 250.922 291 C 250.884 249.666, 250.681 248.035, 245.102 244.285 C 241.705 242.001, 241.694 242, 202.102 242.004 C 164.588 242.007, 162.331 242.110, 159.299 243.960 M 301.195 247.500 C 301.215 249.150, 301.439 249.704, 301.693 248.731 C 301.947 247.758, 301.930 246.408, 301.656 245.731 C 301.382 245.054, 301.175 245.850, 301.195 247.500 M 192.500 251.710 C 185.789 254.008, 177.930 261.822, 175.676 268.437 C 172.398 278.059, 174.175 285.963, 183.674 304 C 191.887 319.596, 199.577 331, 201.880 331 C 206.164 331, 226.627 294.244, 229.160 282 C 233.210 262.422, 212.115 244.992, 192.500 251.710 M 199.264 256.718 C 200.784 256.947, 203.034 256.941, 204.264 256.704 C 205.494 256.467, 204.250 256.279, 201.500 256.286 C 198.750 256.294, 197.744 256.488, 199.264 256.718 M 78.784 262.738 C 81.689 262.941, 86.189 262.939, 88.784 262.734 C 91.378 262.528, 89 262.363, 83.500 262.365 C 78 262.368, 75.878 262.536, 78.784 262.738 M 195.195 276.500 C 195.215 278.150, 195.439 278.704, 195.693 277.731 C 195.947 276.758, 195.930 275.408, 195.656 274.731 C 195.382 274.054, 195.175 274.850, 195.195 276.500 M 223.195 277.500 C 223.215 279.150, 223.439 279.704, 223.693 278.731 C 223.947 277.758, 223.930 276.408, 223.656 275.731 C 223.382 275.054, 223.175 275.850, 223.195 277.500 M 41.730 283.721 C 42.626 284.356, 43.042 290.707, 43.260 307.047 L 43.560 329.500 43.530 306.583 C 43.504 287.077, 43.277 283.605, 42 283.257 C 40.910 282.959, 40.836 283.086, 41.730 283.721 M 361.449 284.273 C 361.180 284.973, 361.091 295.660, 361.250 308.023 L 361.540 330.500 361.770 307.333 C 361.943 289.912, 362.310 284.042, 363.250 283.662 C 364.229 283.267, 364.222 283.141, 363.219 283.079 C 362.514 283.036, 361.717 283.573, 361.449 284.273 M 152 340.500 C 153.292 341.875, 154.574 343, 154.849 343 C 155.124 343, 154.292 341.875, 153 340.500 C 151.708 339.125, 150.426 338, 150.151 338 C 149.876 338, 150.708 339.125, 152 340.500 M 345.946 346.750 L 342.500 350.500 346.250 347.054 C 348.313 345.158, 350 343.471, 350 343.304 C 350 342.540, 349.154 343.260, 345.946 346.750 M 162.762 345.707 C 164.006 345.946, 165.806 345.937, 166.762 345.687 C 167.718 345.437, 166.700 345.241, 164.500 345.252 C 162.300 345.263, 161.518 345.468, 162.762 345.707 M 51 348.313 C 51 348.485, 52.462 349.948, 54.250 351.563 L 57.500 354.500 54.563 351.250 C 51.825 348.221, 51 347.540, 51 348.313 M 350.437 351.250 L 347.500 354.500 350.750 351.563 C 353.779 348.825, 354.460 348, 353.687 348 C 353.515 348, 352.052 349.462, 350.437 351.250 M 138.828 355.750 C 174.208 355.896, 231.808 355.896, 266.828 355.750 C 301.847 355.604, 272.900 355.485, 202.500 355.485 C 132.100 355.485, 103.447 355.604, 138.828 355.750 M 17.436 374.307 C 17.142 375.072, 17.036 378.804, 17.201 382.599 L 17.500 389.500 25.500 389.500 L 33.500 389.500 33.631 386 L 33.761 382.500 33.317 385.750 L 32.873 389 25.437 389 L 18 389 18 381.500 L 18 374 25.437 374 C 32.784 374, 32.878 374.033, 33.280 376.750 C 33.663 379.345, 33.681 379.330, 33.593 376.500 L 33.500 373.500 25.735 373.208 C 19.820 372.985, 17.842 373.247, 17.436 374.307 M 371.406 374.385 C 371.096 375.193, 371.041 376.900, 371.285 378.177 C 371.622 379.946, 371.760 379.724, 371.864 377.250 L 372 374 379.500 374 L 387 374 387 381.500 L 387 389 379.563 389 L 372.127 389 371.683 385.750 L 371.239 382.500 371.369 386 L 371.500 389.500 379.500 389.500 L 387.500 389.500 387.500 381.500 L 387.500 373.500 379.735 373.208 C 373.632 372.978, 371.849 373.230, 371.406 374.385 M 20 381.448 C 20 384.501, 20.337 387, 20.750 387.001 C 21.163 387.001, 21.344 384.751, 21.153 382.001 L 20.807 377 25.351 377 L 29.895 377 30.293 382.250 L 30.691 387.500 30.595 382 L 30.500 376.500 25.250 376.198 L 20 375.895 20 381.448 M 374.667 376.667 C 373.747 377.587, 373.822 387, 374.750 387.001 C 375.163 387.001, 375.344 384.751, 375.153 382.001 L 374.807 377 379.351 377 L 383.895 377 384.263 382.250 L 384.630 387.500 384.815 381.750 L 385 376 380.167 376 C 377.508 376, 375.033 376.300, 374.667 376.667" stroke="none" fill="#b69bf8" fill-rule="evenodd"/><path d="M 71.972 45.359 C 61.538 47.607, 51.331 55.855, 46.701 65.780 C 44.544 70.405, 44.490 71.545, 44 122.344 L 43.500 174.187 39.655 175.508 C 35.020 177.101, 31.651 180.109, 29.556 184.523 C 28.226 187.325, 28 193.782, 28 228.933 C 28 273.202, 28.090 274.056, 33.276 278.835 C 34.670 280.120, 37.541 281.765, 39.655 282.491 L 43.500 283.811 44.007 309.655 L 44.513 335.500 47.350 341.201 C 50.477 347.482, 57.571 354.720, 63.633 357.813 C 71.971 362.067, 73.736 362.116, 206.500 361.801 L 333.500 361.500 339.218 358.820 C 346.783 355.274, 354.151 348.231, 357.650 341.201 L 360.487 335.500 360.993 309.655 L 361.500 283.811 365.345 282.491 C 370.088 280.862, 373.825 277.516, 375.629 273.282 C 377.665 268.503, 377.635 188.120, 375.595 184.200 C 373.541 180.253, 369.718 177.011, 365.345 175.508 L 361.500 174.187 361 122.344 L 360.500 70.500 357.656 64.799 C 354.520 58.512, 347.424 51.277, 341.360 48.184 C 339.202 47.083, 334.781 45.691, 331.535 45.091 C 322.831 43.482, 79.518 43.733, 71.972 45.359 M 73.410 51.134 C 66.820 52.617, 58.866 57.966, 55.277 63.329 C 50.922 69.837, 50.012 73.706, 50.006 85.750 L 50 96 202.603 96 L 355.206 96 354.853 83.750 C 354.521 72.224, 354.317 71.175, 351.401 66 C 349.610 62.822, 346.277 58.955, 343.504 56.840 C 334.043 49.625, 341.635 49.988, 202.434 50.107 C 130.451 50.169, 75.767 50.604, 73.410 51.134 M 85.615 62.088 C 75.406 70.118, 80.449 86.011, 93.200 85.996 C 104.787 85.983, 110.260 71.208, 101.613 63.284 C 98.586 60.510, 97.271 60, 93.150 60 C 89.715 60, 87.483 60.619, 85.615 62.088 M 88 68 C 85.302 70.698, 85.444 75.129, 88.314 77.826 C 91.277 80.609, 95.360 80.603, 97.961 77.811 C 102.205 73.256, 99.157 66, 93 66 C 91.333 66, 89.111 66.889, 88 68 M 50 137.954 L 50 173.909 87.325 174.204 L 124.650 174.500 128.704 177.184 C 131.167 178.815, 133.603 181.614, 134.911 184.316 C 137.024 188.682, 137.059 189.532, 136.782 230.207 L 136.500 271.649 133.839 275.668 C 128.727 283.390, 128.306 283.463, 86.750 283.785 L 50 284.070 50 307.857 C 50 334.958, 50.568 337.956, 57.111 345.388 C 59.320 347.898, 63.598 351.128, 66.786 352.694 L 72.500 355.500 202.500 355.500 L 332.500 355.500 337.122 353.363 C 343.413 350.454, 349.070 345.129, 352.033 339.330 C 354.434 334.629, 354.508 333.829, 354.798 309.285 L 355.096 284.071 318.298 283.785 C 276.688 283.463, 276.273 283.391, 271.161 275.668 L 268.500 271.649 268.218 230.207 C 267.941 189.532, 267.976 188.682, 270.089 184.316 C 271.397 181.614, 273.833 178.815, 276.296 177.184 L 280.350 174.500 317.675 174.204 L 355 173.909 355 137.954 L 355 102 202.500 102 L 50 102 50 137.954 M 159.637 113.465 C 154.575 115.269, 150.408 119.361, 148.481 124.420 C 147.150 127.915, 146.968 134.314, 147.213 169.075 L 147.500 209.649 150.323 213.913 C 152.185 216.725, 154.648 218.842, 157.561 220.130 C 161.748 221.982, 164.127 222.068, 203.397 221.792 L 244.817 221.500 248.658 218.394 C 256.680 211.908, 256.460 213.198, 256.824 170.500 C 257.183 128.393, 256.768 124.084, 251.820 118.448 C 246.483 112.370, 243.508 111.994, 201.068 112.044 C 171.792 112.078, 162.647 112.392, 159.637 113.465 M 161.035 119.284 C 159.075 119.972, 156.576 121.977, 155.285 123.898 C 153.001 127.295, 153 127.305, 153 167 C 153 206.674, 153.002 206.707, 155.280 210.088 C 159.280 216.023, 158.852 215.969, 202.102 215.985 C 241.702 216, 241.704 216, 245.102 213.715 C 247.044 212.410, 249.012 209.945, 249.694 207.965 C 250.531 205.535, 250.904 193.378, 250.944 167.270 C 251.005 126.565, 250.765 124.601, 245.209 120.500 C 242.622 118.590, 240.748 118.490, 203.500 118.284 C 174.960 118.126, 163.571 118.394, 161.035 119.284 M 174.379 139.437 C 167.918 142.249, 166.394 145.833, 162.840 166.569 C 159.915 183.634, 159.723 185.917, 160.961 188.906 C 163.661 195.424, 172.289 197.950, 178.635 194.081 C 181.661 192.236, 182.769 190.142, 186.352 179.500 L 187.699 175.500 201.783 175.223 L 215.867 174.946 218.143 182.011 C 221.350 191.970, 224.228 195.123, 230.675 195.743 C 235.422 196.199, 236.041 195.989, 239.608 192.720 C 242.922 189.683, 243.442 188.619, 243.450 184.854 C 243.462 178.868, 238.088 149.114, 236.402 145.829 C 232.771 138.758, 221.836 136.120, 215.346 140.750 C 212.577 142.725, 210.962 143, 202.149 143 C 193.357 143, 191.520 142.689, 187.404 140.500 C 182.139 137.701, 178.964 137.441, 174.379 139.437 M 175.888 145.500 C 172.327 147.435, 171.535 149.924, 168.352 169.198 C 165.661 185.497, 165.639 185.944, 167.453 187.948 C 169.613 190.335, 174.215 190.651, 175.973 188.533 C 176.642 187.726, 178.654 183.114, 180.442 178.283 L 183.695 169.500 201.732 169.228 C 218.207 168.979, 219.831 169.109, 220.490 170.728 C 220.886 171.703, 222.287 175.614, 223.603 179.419 C 224.919 183.224, 226.741 187.162, 227.653 188.169 C 230.055 190.823, 234.607 190.529, 236.530 187.594 C 237.989 185.367, 237.876 183.872, 234.999 167.493 C 233.289 157.761, 231.377 148.976, 230.749 147.970 C 229.445 145.881, 225.787 144, 223.030 144 C 221.998 144, 219.816 145.125, 218.182 146.500 C 215.341 148.891, 214.633 149, 202 149 C 189.367 149, 188.659 148.891, 185.818 146.500 C 182.480 143.691, 179.726 143.414, 175.888 145.500 M 40.325 181.459 C 33.482 184.436, 33.533 184.112, 33.206 227.210 C 32.926 264.207, 33.005 266.223, 34.915 270.540 C 38.281 278.150, 38.002 278.109, 84.124 277.783 L 124.155 277.500 127.578 273.765 L 131 270.029 131 229.150 C 131 189.208, 130.952 188.209, 128.912 185.615 C 124.500 180.006, 124.420 179.997, 82.300 180.039 C 51.566 180.070, 42.840 180.365, 40.325 181.459 M 280.367 181.918 C 273.782 185.933, 273.998 184.346, 274.015 228.473 C 274.031 272.184, 273.973 271.717, 279.912 275.720 C 283.290 277.996, 283.360 278, 322.180 278 C 364.559 278, 365.848 277.847, 369.546 272.386 C 371.405 269.640, 371.500 267.534, 371.500 229 C 371.500 191.578, 371.363 188.298, 369.691 185.836 C 365.816 180.127, 364.778 180, 322.349 180.004 C 285.870 180.007, 283.309 180.124, 280.367 181.918 M 74.655 197.829 C 72.469 200.244, 72.552 204.284, 74.829 206.345 C 78.793 209.933, 85 207.175, 85 201.826 C 85 196.705, 78.089 194.034, 74.655 197.829 M 305.774 201.536 C 304.198 202.405, 302.653 204.403, 302.114 206.270 C 301.012 210.087, 301.303 250.692, 302.452 253.287 C 303.592 255.864, 308.678 258.235, 311.300 257.412 C 312.510 257.032, 321.469 251.747, 331.209 245.668 C 357.536 229.235, 357.534 228.800, 331.054 212.254 C 321.220 206.109, 312.123 200.846, 310.837 200.557 C 309.552 200.269, 307.273 200.709, 305.774 201.536 M 308.200 207.200 C 306.376 209.024, 306.512 249.350, 308.347 250.873 C 309.392 251.741, 313.377 249.729, 326.097 241.912 C 345.379 230.064, 346.013 229.555, 343.964 227.609 C 342.610 226.323, 310.391 206, 309.706 206 C 309.538 206, 308.860 206.540, 308.200 207.200 M 64.377 218.461 C 63.072 221.860, 64.727 223, 70.969 223 L 77 223 77 239.500 L 77 256 71.750 256.015 C 65.666 256.033, 63.659 256.987, 64.164 259.620 C 64.497 261.351, 65.774 261.522, 80.284 261.776 C 93.714 262.010, 96.130 261.824, 96.633 260.513 C 97.761 257.574, 95.064 256, 88.899 256 L 83.043 256 82.772 236.750 L 82.500 217.500 73.734 217.211 C 66.582 216.975, 64.859 217.205, 64.377 218.461 M 158.500 237.496 C 153.723 239.178, 149.327 244.071, 147.930 249.260 C 147.298 251.607, 147.025 268.272, 147.207 293.423 L 147.500 333.817 150.606 337.659 C 157.084 345.670, 155.850 345.458, 198.154 345.841 C 240.056 346.220, 244.927 345.759, 250.476 340.887 C 256.690 335.431, 257.001 333.059, 256.994 291.072 C 256.991 267.670, 256.589 252.059, 255.928 249.679 C 254.486 244.488, 248.955 238.603, 244.171 237.169 C 238.091 235.348, 163.796 235.631, 158.500 237.496 M 159.299 243.960 C 153.012 247.793, 153 247.882, 153 290.482 C 153 332.538, 153.187 334.110, 158.621 337.672 C 161.178 339.349, 164.597 339.524, 199.941 339.795 C 244.595 340.138, 245.748 339.969, 249.082 332.628 C 250.810 328.822, 250.953 325.571, 250.922 291 C 250.884 249.666, 250.681 248.035, 245.102 244.285 C 241.705 242.001, 241.694 242, 202.102 242.004 C 164.588 242.007, 162.331 242.110, 159.299 243.960 M 192.500 251.710 C 185.789 254.008, 177.930 261.822, 175.676 268.437 C 172.398 278.059, 174.175 285.963, 183.674 304 C 191.887 319.596, 199.577 331, 201.880 331 C 206.164 331, 226.627 294.244, 229.160 282 C 233.210 262.422, 212.115 244.992, 192.500 251.710 M 191.880 258.794 C 187.982 260.830, 185.713 262.913, 183.515 266.470 C 177.442 276.303, 180.097 287.018, 194.664 311.449 C 198.398 317.713, 201.750 322.654, 202.113 322.430 C 203.390 321.641, 214.950 301.410, 218.358 294 C 225.380 278.733, 225.280 272.008, 217.906 263.631 C 211.027 255.816, 201.109 253.973, 191.880 258.794 M 197.655 271.829 C 195.137 274.611, 195.521 279.640, 198.394 281.523 C 202.972 284.522, 208 281.434, 208 275.622 C 208 270.824, 200.915 268.226, 197.655 271.829 M 18 381.500 L 18 389 25.500 389 L 33 389 33 386 L 33 383 202.500 383 L 372 383 372 386 L 372 389 379.500 389 L 387 389 387 381.500 L 387 374 379.500 374 L 372 374 372 377 L 372 380 202.500 380 L 33 380 33 377 L 33 374 25.500 374 L 18 374 18 381.500 M 20 381.448 L 20 387 25.552 387 L 31.105 387 30.802 381.750 L 30.500 376.500 25.250 376.198 L 20 375.895 20 381.448 M 374.667 376.667 C 374.300 377.033, 374 379.508, 374 382.167 L 374 387 379.500 387 L 385 387 385 381.500 L 385 376 380.167 376 C 377.508 376, 375.033 376.300, 374.667 376.667" stroke="none" fill="#432c94" fill-rule="evenodd"/><path d="M -0 200.002 L -0 400.005 200.250 399.752 L 400.500 399.500 400.752 199.750 L 401.005 0 200.502 0 L 0 0 -0 200.002 M 0.490 200.500 C 0.490 310.500, 0.607 355.352, 0.750 300.170 C 0.893 244.989, 0.893 154.989, 0.750 100.170 C 0.607 45.352, 0.490 90.500, 0.490 200.500 M 68.870 45.565 C 58.598 48.728, 48.761 58.280, 45.252 68.500 C 43.736 72.913, 43.499 79.374, 43.233 123.566 L 42.930 173.632 38.064 175.688 C 34.601 177.152, 32.376 178.986, 30.349 182.050 L 27.500 186.355 27.500 229.001 L 27.500 271.647 30.223 275.762 C 32.055 278.529, 34.567 280.620, 37.897 282.147 L 42.848 284.419 43.242 308.459 C 43.687 335.578, 44.364 339.099, 50.734 347.416 C 52.805 350.120, 56.691 353.836, 59.369 355.673 C 69.177 362.402, 60.965 362.057, 204.557 361.765 L 334.500 361.500 339.330 359.271 C 346.268 356.069, 351.782 351.380, 355.567 345.462 C 361.043 336.902, 362 331.083, 362 306.350 L 362 284.488 367.027 282.182 C 370.431 280.620, 372.933 278.548, 374.777 275.763 L 377.500 271.649 377.782 230.381 C 378.058 189.944, 378.020 189.021, 375.914 184.541 C 373.673 179.772, 370.180 176.656, 365.087 174.880 L 362.085 173.834 361.771 123.167 C 361.420 66.609, 361.622 68.335, 354.212 58.500 C 349.705 52.517, 342.666 47.572, 335.719 45.509 C 328.300 43.306, 76.036 43.358, 68.870 45.565 M 88.944 67.844 C 86.219 70.051, 85.869 75.298, 88.286 77.714 C 90.282 79.711, 95.611 79.828, 97.482 77.917 C 100.313 75.024, 100.377 71.286, 97.641 68.550 C 94.621 65.530, 92.059 65.322, 88.944 67.844 M 50.670 102.663 C 50.301 103.032, 50 119.233, 50 138.667 L 50 174 86.435 174 C 109.747 174, 123.884 174.383, 125.685 175.064 C 129.134 176.367, 133.695 180.575, 135.589 184.200 C 136.739 186.401, 136.999 194.728, 136.996 229.200 C 136.992 276.678, 137.295 274.621, 129.414 280.634 L 125.658 283.500 87.753 283.785 L 49.847 284.069 50.173 308.785 C 50.489 332.685, 50.580 333.657, 52.938 338.271 C 56.173 344.604, 61.383 349.737, 67.500 352.622 L 72.500 354.980 202.500 354.980 L 332.500 354.980 337.500 352.610 C 343.351 349.836, 348.882 344.326, 352.165 338 C 354.396 333.700, 354.515 332.401, 354.827 308.785 L 355.153 284.069 317.247 283.785 L 279.342 283.500 275.586 280.634 C 267.705 274.621, 268.008 276.678, 268.004 229.200 C 268.001 194.728, 268.261 186.401, 269.411 184.200 C 271.305 180.575, 275.866 176.367, 279.315 175.064 C 281.116 174.383, 295.257 174, 318.578 174 L 355.025 174 354.763 138.250 L 354.500 102.500 202.920 102.247 C 119.551 102.108, 51.038 102.295, 50.670 102.663 M 157.384 113.913 C 155.120 114.941, 151.970 117.483, 150.384 119.562 L 147.500 123.342 147.202 164.421 C 147.038 187.014, 147.172 206.972, 147.501 208.771 C 148.244 212.840, 153.411 218.856, 157.702 220.649 C 162.438 222.628, 241.589 222.616, 246.329 220.636 C 250.456 218.911, 254.629 213.995, 256.031 209.205 C 256.754 206.732, 257.012 192.010, 256.807 164.925 L 256.500 124.351 253.816 120.297 C 252.200 117.856, 249.388 115.398, 246.750 114.121 C 242.504 112.066, 241.118 112.001, 201.934 112.022 C 164.606 112.042, 161.184 112.187, 157.384 113.913 M 174.073 147.635 C 172.933 149.084, 171.999 150.547, 171.998 150.885 C 171.997 151.223, 170.693 158.904, 169.100 167.954 C 166.145 184.750, 166.207 188.098, 169.503 189.363 C 172.106 190.362, 175.646 189.054, 176.778 186.674 C 177.346 185.478, 179.008 181.134, 180.470 177.019 C 181.932 172.905, 183.662 169.199, 184.314 168.785 C 184.966 168.370, 192.982 168.024, 202.128 168.015 C 214.425 168.004, 219.031 168.333, 219.816 169.279 C 220.400 169.982, 222.310 174.517, 224.061 179.356 C 227.713 189.448, 230.036 191.517, 234.459 188.619 C 237.678 186.510, 237.664 185.547, 234.121 165.072 C 231.722 151.212, 230.926 148.359, 229.028 146.822 C 225.805 144.212, 220.746 144.501, 217.182 147.500 C 214.348 149.885, 213.614 150, 201.280 150 C 188.780 150, 188.270 149.917, 186 147.500 C 182.671 143.956, 176.915 144.021, 174.073 147.635 M 308 228.953 C 308 249.760, 308.112 251.119, 309.798 250.820 C 313.120 250.229, 343.930 230.535, 343.933 229 C 343.936 227.534, 313.798 208.283, 309.908 207.266 C 308.073 206.786, 308 207.617, 308 228.953 M 156.500 237.871 C 152.518 240.344, 149.374 243.865, 148.067 247.315 C 147.374 249.142, 147 264.509, 147 291.105 C 147 329.339, 147.127 332.328, 148.894 335.790 C 151.233 340.373, 153.504 342.477, 158.254 344.462 C 161.360 345.760, 168.223 346, 202.152 346 C 241.090 346, 242.508 345.933, 246.750 343.879 C 249.388 342.602, 252.200 340.144, 253.816 337.703 L 256.500 333.649 256.807 293.075 C 257.134 249.863, 256.923 247.439, 252.354 242.008 C 247.348 236.060, 246.835 236, 201.128 236.004 C 162.262 236.007, 159.301 236.131, 156.500 237.871 M 192.500 258.662 C 186.033 262.071, 181.953 267.735, 180.603 275.178 C 179.446 281.558, 186.208 297.273, 198.845 317.577 L 201.773 322.281 205.890 315.890 C 208.155 312.376, 212.819 303.898, 216.254 297.051 C 222.188 285.224, 222.500 284.242, 222.500 277.387 C 222.500 270.984, 222.163 269.693, 219.500 265.913 C 215.316 259.973, 209.295 256.989, 201.593 257.040 C 198.042 257.063, 194.248 257.740, 192.500 258.662 M 197 272 C 194.423 274.577, 194.448 278.448, 197.059 281.059 C 199.880 283.880, 204.693 283.319, 207.257 279.870 C 212.016 273.466, 202.690 266.310, 197 272 M 17.436 374.307 C 17.142 375.072, 17.036 378.804, 17.201 382.599 L 17.500 389.500 25.500 389.500 L 33.500 389.500 33.813 386.250 L 34.127 383 202.500 383 L 370.873 383 371.187 386.250 L 371.500 389.500 379.500 389.500 L 387.500 389.500 387.500 381.500 L 387.500 373.500 379.500 373.500 L 371.500 373.500 371.187 376.750 L 370.873 380 202.500 380 L 34.127 380 33.813 376.750 L 33.500 373.500 25.735 373.208 C 19.820 372.985, 17.842 373.247, 17.436 374.307 M 21.195 381.750 L 21.500 386.500 25.750 386.644 L 30 386.789 30 381.894 L 30 377 25.445 377 L 20.890 377 21.195 381.750 M 375.195 381.750 L 375.500 386.500 379.750 386.644 L 384 386.789 384 381.894 L 384 377 379.445 377 L 374.890 377 375.195 381.750" stroke="none" fill="#ffffff" fill-rule="evenodd"/><path d="M 43.014 180.997 C 41.097 181.463, 38.285 183.236, 36.764 184.938 L 34 188.032 34.015 228.266 C 34.031 271.521, 34.025 271.469, 39.323 275.404 C 42.080 277.451, 43.095 277.500, 82.367 277.500 C 127.288 277.500, 126.597 277.603, 129.584 270.454 C 131.661 265.482, 131.661 192.518, 129.584 187.546 C 126.623 180.459, 127.003 180.520, 84.546 180.325 C 63.621 180.229, 44.931 180.531, 43.014 180.997 M 286.117 180.739 C 280.656 181.224, 277.628 183.156, 275.586 187.460 C 274.224 190.330, 274 196.190, 274 228.933 C 274 270.496, 274.164 271.855, 279.614 275.546 C 282.324 277.381, 284.723 277.519, 319 277.812 C 339.075 277.983, 357.498 277.830, 359.940 277.472 C 363.095 277.009, 365.337 275.863, 367.690 273.510 L 371 270.200 371 229.177 L 371 188.153 368.436 185.106 C 367.025 183.430, 364.213 181.598, 362.186 181.035 C 358.714 180.070, 296.373 179.828, 286.117 180.739 M 76.642 195.881 C 74.096 196.869, 72.218 200.691, 72.796 203.711 C 73.328 206.496, 78.062 209.058, 81.172 208.245 C 83.405 207.661, 86 204.244, 86 201.888 C 86 197.983, 80.433 194.410, 76.642 195.881 M 304.046 202.800 L 301 205.846 301 229 L 301 252.154 304.046 255.200 C 306.545 257.699, 307.669 258.151, 310.296 257.713 C 313.909 257.111, 346.550 237.149, 349.250 233.890 C 351.403 231.293, 351.503 227.163, 349.483 224.279 C 348.649 223.088, 344.036 219.748, 339.233 216.856 C 334.430 213.964, 326.734 209.176, 322.132 206.217 C 311.399 199.315, 308.146 198.700, 304.046 202.800 M 63.445 219.174 C 62.450 222.308, 65.340 224, 71.691 224 L 77 224 77 239.952 L 77 255.905 70.854 256.202 C 64.027 256.533, 61.474 258.456, 63.930 261.416 C 65.865 263.748, 94.097 263.760, 96.427 261.431 C 97.611 260.246, 97.743 259.388, 96.963 257.931 C 96.119 256.354, 94.835 256, 89.965 256 L 84 256 84 237.700 C 84 224.800, 83.646 219.046, 82.800 218.200 C 82.050 217.450, 78.326 217, 72.867 217 C 64.780 217, 64.084 217.161, 63.445 219.174" stroke="none" fill="#fcd353" fill-rule="evenodd"/><path d="M 164.500 118.454 C 163.950 118.658, 162.275 119.095, 160.778 119.425 C 159.165 119.780, 157.025 121.540, 155.528 123.744 L 153 127.464 153 166.782 C 153 208.712, 153.031 209.002, 158.001 213.502 C 160.115 215.417, 161.845 215.512, 199.394 215.793 C 244.786 216.132, 245.201 216.075, 248.750 209.038 C 250.963 204.649, 251 203.970, 251 167.256 C 251 126.895, 250.886 125.926, 245.549 121 L 242.841 118.500 204.171 118.291 C 182.902 118.176, 165.050 118.249, 164.500 118.454 M 173.278 140.036 C 170.801 141.294, 168.410 143.477, 167.492 145.317 C 165.948 148.412, 160 179.542, 160 184.528 C 160 193.309, 171.162 199.216, 178.576 194.358 C 181.661 192.337, 182.808 190.297, 185.530 182 L 187.663 175.500 201.654 175.224 L 215.645 174.947 217.986 181.957 C 221.129 191.370, 224.243 194.968, 229.892 195.718 C 235.529 196.467, 240.282 194.034, 242.559 189.234 C 244.110 185.965, 244.111 185.073, 242.568 176.113 C 241.657 170.826, 240.249 162.525, 239.438 157.666 C 237.714 147.328, 236.201 143.991, 231.829 140.878 C 227.363 137.698, 219.342 137.636, 215.127 140.750 C 212.428 142.744, 210.897 143, 201.675 143 C 192.770 143, 190.902 142.710, 188.717 140.992 C 184.748 137.870, 178.322 137.472, 173.278 140.036 M 67.750 223.706 C 68.987 223.944, 71.013 223.944, 72.250 223.706 C 73.487 223.467, 72.475 223.272, 70 223.272 C 67.525 223.272, 66.513 223.467, 67.750 223.706 M 67.264 262.718 C 68.784 262.947, 71.034 262.941, 72.264 262.704 C 73.494 262.467, 72.250 262.279, 69.500 262.286 C 66.750 262.294, 65.744 262.488, 67.264 262.718" stroke="none" fill="#ff8878" fill-rule="evenodd"/></svg>