<svg xmlns="http://www.w3.org/2000/svg" width="400" height="400" viewBox="0 0 400 400" version="1.1"><path d="M -0 200.002 L -0 400.005 200.250 399.752 L 400.500 399.500 400.752 199.750 L 401.005 0 200.502 0 L 0 0 -0 200.002 M 0.490 200.500 C 0.490 310.500, 0.607 355.352, 0.750 300.170 C 0.893 244.989, 0.893 154.989, 0.750 100.170 C 0.607 45.352, 0.490 90.500, 0.490 200.500 M 105.942 42.904 L 103 45.846 103 59.923 L 103 74 77.148 74 C 51.984 74, 51.208 74.060, 47.990 76.250 C 46.172 77.487, 43.743 79.770, 42.592 81.323 C 40.509 84.135, 40.500 84.502, 40.500 166.823 L 40.500 249.500 42.901 252.867 C 44.222 254.718, 47.147 257.071, 49.401 258.095 C 53.198 259.819, 56.760 259.958, 97.750 259.978 L 142 260 142 280.500 L 142 301 123.607 301 C 109.152 301, 105.104 301.287, 104.700 302.341 C 103.296 305.998, 103.767 306.018, 183.563 305.756 C 260.748 305.502, 261.500 305.481, 261.500 303.500 C 261.500 301.583, 260.742 301.489, 243.250 301.227 L 225 300.955 225 280.477 L 225 260 235.378 260 C 245.951 260, 248.867 259.005, 247.740 255.784 C 247.395 254.796, 252.605 246, 253.536 246 C 253.644 246, 254.754 248.813, 256.004 252.250 C 259.861 262.861, 267.219 272.748, 276.250 279.453 L 280 282.237 280 300.430 C 280 317.464, 280.132 318.765, 282.077 320.852 C 283.219 322.078, 285.420 323.334, 286.970 323.644 C 289.680 324.186, 289.801 324.464, 290.174 331.072 C 290.814 342.401, 295.805 347.249, 307.432 347.836 C 320.599 348.501, 326.889 343.288, 327.769 330.979 C 328.203 324.922, 328.524 324, 330.200 324 C 333.446 324, 336.099 322.006, 337.585 318.452 C 338.615 315.986, 339 310.486, 339 298.246 L 339 281.427 343.981 277.708 C 357.651 267.503, 368.725 243.828, 363.977 234.957 C 361.839 230.962, 359.285 230.517, 335.500 230 L 312.500 229.500 312 205.662 L 311.500 181.823 308.750 179.460 C 307.237 178.160, 306 176.828, 306 176.500 C 306 176.172, 309.350 171.480, 313.444 166.074 C 318.377 159.560, 321.750 156.029, 323.444 155.603 L 326 154.962 326 120.382 C 326 82.148, 325.858 81.175, 319.627 76.730 C 316.604 74.574, 315.594 74.490, 289.323 74.205 L 262.146 73.910 261.823 59.480 C 261.522 46.020, 261.347 44.897, 259.223 42.775 L 256.945 40.500 182.915 40.231 L 108.884 39.962 105.942 42.904 M 325.923 164.923 L 323 167.846 323.022 191.173 C 323.052 222.775, 321.329 221, 351.984 221 C 375.339 221, 377.652 220.508, 380.541 214.921 C 381.868 212.354, 381.936 210.982, 380.968 206.188 C 377.182 187.424, 362.133 170.790, 343.058 164.287 C 333.791 161.128, 329.561 161.285, 325.923 164.923 M 148 280.500 L 148 301 184 301 L 220 301 220 280.500 L 220 260 184 260 L 148 260 148 280.500 M 6.209 385.210 L 6.500 393.500 14.413 393.795 C 22.821 394.108, 23.955 393.570, 23.985 389.250 L 24 387 200.500 387 L 377 387 377.015 389.250 C 377.045 393.570, 378.179 394.108, 386.587 393.795 L 394.500 393.500 394.791 385.210 L 395.082 376.921 386.291 377.210 C 377.526 377.499, 377.499 377.508, 377.184 380.250 L 376.867 383 200.500 383 L 24.133 383 23.816 380.250 C 23.501 377.508, 23.474 377.499, 14.709 377.210 L 5.918 376.921 6.209 385.210 M 10 385 L 10 390 15 390 L 20 390 20 385 L 20 380 15 380 L 10 380 10 385 M 381 385 L 381 390 386 390 L 391 390 391 385 L 391 380 386 380 L 381 380 381 385" stroke="none" fill="#ffffff" fill-rule="evenodd"/><path d="M 109.179 41.124 C 104.174 42.586, 103 46.450, 103 61.468 L 103 74 78.250 74.022 C 50.350 74.047, 46.971 74.734, 43.015 81.192 C 41.016 84.454, 40.992 85.662, 41.244 167.670 L 41.500 250.839 44 253.515 C 49.223 259.104, 48.206 259, 97.450 259 L 143 259 143 279.978 L 143 300.956 124.250 301.228 C 106.257 301.489, 105.500 301.581, 105.500 303.500 C 105.500 305.480, 106.252 305.503, 182.390 305.756 C 261.037 306.018, 263.820 305.898, 260.890 302.367 C 260.010 301.307, 255.855 301, 242.378 301 L 225 301 225 280 L 225 259 235.941 259 C 247.016 259, 249.296 258.267, 246.964 255.456 C 245.921 254.200, 232.478 254, 148.893 254 L 52.032 254 48.766 251.082 L 45.500 248.165 45.198 169.332 C 44.985 113.826, 45.223 89.376, 46.002 86.702 C 46.735 84.188, 48.189 82.246, 50.304 80.956 C 53.244 79.164, 55.482 79.007, 78.239 79.004 L 102.979 79 103.239 121.750 C 103.495 163.746, 103.535 164.500, 105.500 164.500 C 107.474 164.500, 107.503 163.750, 107.751 106 C 107.982 52.416, 108.145 47.395, 109.692 46.250 C 111.007 45.278, 127.181 45, 182.536 45 C 250.377 45, 253.768 45.086, 255.356 46.841 C 256.889 48.535, 256.997 55.341, 256.700 131.591 C 256.402 207.944, 256.233 215.061, 254.552 221.590 L 252.728 228.680 216.114 229.339 C 195.976 229.701, 172.203 229.998, 163.286 229.999 L 147.071 230 149.210 225.250 C 152.211 218.586, 152.286 205.385, 149.359 198.949 C 146.664 193.024, 141.320 186.940, 139.443 187.660 C 137.337 188.468, 137.616 189.490, 141.473 195.097 C 143.384 197.874, 145.406 201.801, 145.968 203.823 C 151.018 222.005, 137.236 240.250, 118.451 240.250 C 96.133 240.250, 82.739 216.101, 94.357 196.808 C 96.155 193.822, 97.448 190.843, 97.230 190.189 C 96.407 187.721, 93.348 189.151, 90.684 193.250 C 84.610 202.594, 83.444 215.434, 87.781 225.237 C 90.511 231.408, 97.283 238.579, 103.460 241.839 C 107.944 244.205, 109.604 244.499, 118.500 244.499 C 129.167 244.500, 132.933 243.283, 139.616 237.677 L 142.500 235.258 197.750 234.517 L 253 233.776 253 236.994 C 253 241.905, 255.793 251.617, 259.235 258.676 C 262.662 265.705, 271.155 275.697, 276.523 279.014 L 280 281.163 280 298.516 C 280 308.061, 280.452 317.058, 281.004 318.511 C 281.639 320.180, 283.475 321.768, 285.994 322.826 C 289.550 324.319, 289.983 324.877, 290.014 328 C 290.152 342.246, 299.197 349.697, 313.710 347.521 C 322.040 346.272, 327.979 338.085, 327.994 327.829 C 327.999 324.569, 328.334 324.086, 330.988 323.503 C 332.631 323.142, 334.881 321.695, 335.988 320.288 C 337.829 317.947, 338 316.251, 338 300.279 L 338 282.828 346.888 274.164 C 357.767 263.560, 362.927 254.106, 364.634 241.653 C 365.201 237.514, 364.982 236.829, 362.206 234.052 L 359.154 231 336.648 231 C 317.522 231, 313.907 230.764, 312.571 229.429 C 311.235 228.092, 311 224.455, 311 205.103 C 311 182.773, 310.958 182.311, 308.750 180.323 C 305.497 177.395, 303.994 177.092, 298.060 178.171 C 286.914 180.197, 272.931 188.532, 265.931 197.324 L 262 202.261 262 140.584 L 262 78.907 288.479 79.203 L 314.958 79.500 317.729 82.272 L 320.500 85.043 320.787 120.086 L 321.074 155.129 323.287 154.815 L 325.500 154.500 325.500 119.500 C 325.500 80.658, 325.677 81.760, 318.618 76.724 C 315.607 74.577, 314.562 74.489, 288.250 74.191 L 261 73.882 261 59.997 C 261 46.761, 260.887 45.980, 258.587 43.306 L 256.174 40.500 184.337 40.327 C 140.344 40.221, 111.213 40.530, 109.179 41.124 M 174.270 57.994 C 161.055 60.790, 148.936 70.745, 144.452 82.486 C 142.831 86.731, 142.827 87.151, 144.386 88.874 C 146.599 91.320, 158.494 94.542, 161.007 93.377 C 162.047 92.895, 163.934 90.967, 165.199 89.093 C 169.123 83.282, 174.345 79.769, 179.844 79.241 C 194.267 77.855, 204.265 89.426, 201.329 104.105 C 200.828 106.612, 198.070 109.996, 190.428 117.480 C 175.402 132.197, 173 138.182, 173 160.894 C 173 176.733, 173.185 177, 184.174 177 C 194.844 177, 195 176.755, 195 159.987 C 195 144.184, 196.372 140.192, 203.859 134.208 C 215.650 124.786, 220.892 116.742, 223.120 104.653 C 226.461 86.520, 214.887 66.705, 196.979 59.900 C 191.085 57.661, 180.173 56.745, 174.270 57.994 M 172.929 63.303 C 163.321 66.029, 154.482 73.214, 150.051 81.901 C 147.776 86.359, 147.659 86.193, 154.369 88.009 C 158.815 89.212, 159.325 89.170, 160.245 87.526 C 165.015 79.003, 174.983 73.449, 184.036 74.270 C 197.749 75.513, 206.450 84.922, 206.444 98.500 C 206.440 107.411, 204.106 112.061, 196.334 118.644 C 187.853 125.827, 185.341 128.811, 181.748 135.974 C 178.592 142.265, 178.490 142.869, 178.158 157.224 L 177.817 172 183.908 172 L 190 172 190 159.649 C 190 152.856, 190.520 145.769, 191.156 143.899 C 192.965 138.581, 197.874 132.335, 203.704 127.933 C 225.962 111.128, 222.669 77.450, 197.608 65.594 C 190.625 62.291, 179.980 61.303, 172.929 63.303 M 56.686 123.647 C 56.309 124.025, 56 125.158, 56 126.167 C 56 127.889, 57.335 128, 78.070 128 L 100.139 128 99.820 125.750 C 99.501 123.508, 99.426 123.499, 78.436 123.231 C 66.851 123.083, 57.063 123.270, 56.686 123.647 M 265.667 123.667 C 265.300 124.033, 265 125.158, 265 126.167 C 265 127.887, 266.316 128, 286.441 128 C 308.038 128, 310.560 127.585, 307.964 124.456 C 306.978 123.269, 303.019 123, 286.544 123 C 275.428 123, 266.033 123.300, 265.667 123.667 M 145.374 152.786 C 144.388 153.411, 138.258 167.079, 123.752 201 C 121.517 206.225, 119.396 210.840, 119.039 211.255 C 118.682 211.671, 117.569 210.150, 116.565 207.876 C 110.370 193.834, 99.768 171.368, 98.952 170.552 C 98.330 169.930, 97.448 170.123, 96.479 171.092 C 95.137 172.435, 96.128 175.104, 105.556 195.550 C 116.417 219.098, 118.211 222.189, 119.988 220.412 C 120.540 219.860, 123.517 213.580, 126.605 206.455 C 149.086 154.578, 149.063 154.635, 147.768 153.340 C 147.071 152.643, 145.993 152.394, 145.374 152.786 M 282.491 157.015 C 282.126 157.605, 282.383 158.756, 283.061 159.573 C 284.053 160.769, 286.662 161.004, 296.397 160.780 C 307.740 160.518, 308.500 160.374, 308.500 158.500 C 308.500 156.620, 307.740 156.483, 295.827 156.221 C 287.590 156.039, 282.922 156.317, 282.491 157.015 M 56.380 158.452 C 55.219 161.479, 57.139 162, 69.452 162 C 79.008 162, 81.905 161.690, 82.315 160.622 C 83.420 157.743, 80.643 157, 68.769 157 C 59.348 157, 56.824 157.296, 56.380 158.452 M 329.500 162.945 C 328.400 163.396, 326.600 164.763, 325.500 165.985 C 323.653 168.035, 323.477 169.854, 323.194 189.759 C 322.979 204.829, 323.246 212.181, 324.081 214.197 C 326.407 219.811, 327.335 220, 352.586 220 L 375.727 220 378.364 217.364 C 381.657 214.071, 381.798 209.776, 378.906 200.915 C 372.951 182.672, 357.830 168.490, 339 163.485 C 332.792 161.836, 332.282 161.807, 329.500 162.945 M 329.571 168.571 C 328.241 169.902, 328 173.413, 328 191.449 C 328 210.032, 328.211 212.931, 329.651 214.128 C 331.794 215.909, 369.089 216.677, 373.424 215.029 C 376.166 213.986, 376.254 213.747, 375.735 208.723 C 374.602 197.749, 366.649 184.682, 356.599 177.284 C 350.326 172.666, 346.577 170.778, 339 168.421 C 333.206 166.619, 331.497 166.646, 329.571 168.571 M 296.608 183.522 C 273.740 189.801, 258 209.953, 258 232.953 C 258 248.806, 263.455 260.438, 276.750 272.936 L 285 280.692 285 298.646 C 285 311.277, 285.356 316.956, 286.200 317.800 C 286.951 318.551, 290.685 319, 296.185 319 L 304.969 319 305.235 290.250 L 305.500 261.500 307.750 261.180 L 310 260.861 310 289.930 L 310 319 320.378 319 C 327.561 319, 331.080 318.608, 331.812 317.727 C 332.442 316.968, 332.996 309.056, 333.184 298.142 L 333.500 279.831 337 276.834 C 352.334 263.700, 358.900 253.282, 359.324 241.411 L 359.500 236.500 335.828 236 C 312.473 235.507, 312.122 235.468, 309.578 233.076 L 307 230.651 307 207.897 C 307 180.137, 307.203 180.613, 296.608 183.522 M 178.217 190.561 C 172.366 194.658, 171.746 202.467, 176.881 207.386 C 180.124 210.493, 186.132 211.184, 189.829 208.875 C 193.050 206.863, 195.303 201.428, 194.559 197.463 C 193.260 190.538, 183.896 186.583, 178.217 190.561 M 56 191.893 C 56 194.595, 57.821 195, 69.959 195 C 78.191 195, 81.042 194.654, 81.964 193.544 C 84.371 190.643, 82.009 190, 68.941 190 C 56.910 190, 56 190.133, 56 191.893 M 179.655 195.829 C 177.246 198.491, 177.625 201.560, 180.657 203.945 C 184.744 207.160, 190 204.639, 190 199.464 C 190 194.664, 182.951 192.187, 179.655 195.829 M 147.667 259.667 C 147.300 260.033, 147 269.483, 147 280.667 L 147 301 183.500 301 L 220 301 220 280 L 220 259 184.167 259 C 164.458 259, 148.033 259.300, 147.667 259.667 M 295 328.532 C 295 338.350, 299.515 343, 309.046 343 C 318.166 343, 323 338.011, 323 328.599 L 323 324 309 324 L 295 324 295 328.532 M 7 385 L 7 393 15 393 L 23 393 23 390 L 23 387 200.500 387 L 378 387 378 390 L 378 393 386 393 L 394 393 394 385 L 394 377 386 377 L 378 377 378 380.500 L 378 384 200.500 384 L 23 384 23 380.500 L 23 377 15 377 L 7 377 7 385 M 9.198 385.250 L 9.500 390.500 14.750 390.802 L 20 391.105 20 385.552 L 20 380 14.448 380 L 8.895 380 9.198 385.250 M 381 385.552 L 381 391.105 386.250 390.802 L 391.500 390.500 391.802 385.250 L 392.105 380 386.552 380 L 381 380 381 385.552" stroke="none" fill="#3e2f77" fill-rule="evenodd"/><path d="M 258.606 43.152 C 259.648 44.611, 260.700 45.611, 260.944 45.374 C 261.189 45.138, 260.337 43.944, 259.050 42.722 L 256.712 40.500 258.606 43.152 M 261.395 60.500 C 261.396 68.200, 261.553 71.218, 261.743 67.206 C 261.934 63.195, 261.932 56.895, 261.741 53.206 C 261.549 49.518, 261.393 52.800, 261.395 60.500 M 256.477 131 C 256.477 176.925, 256.600 195.713, 256.750 172.750 C 256.899 149.788, 256.899 112.213, 256.750 89.250 C 256.600 66.288, 256.477 85.075, 256.477 131 M 205 70.313 C 205 70.485, 206.463 71.948, 208.250 73.563 L 211.500 76.500 208.563 73.250 C 205.825 70.221, 205 69.540, 205 70.313 M 50.304 80.956 C 48.189 82.246, 46.735 84.188, 46.002 86.702 C 45.223 89.376, 44.985 113.826, 45.198 169.332 L 45.500 248.165 48.766 251.082 L 52.032 254 148.816 254 C 212.417 254, 246.009 254.346, 246.792 255.008 C 247.447 255.563, 247.777 255.728, 247.525 255.375 C 247.273 255.022, 248.483 252.761, 250.215 250.351 C 252.526 247.132, 253.605 246.304, 254.275 247.234 C 254.884 248.077, 254.963 247.832, 254.512 246.500 C 254.140 245.400, 253.579 242.088, 253.266 239.140 L 252.697 233.780 197.599 234.519 L 142.500 235.258 139.616 237.677 C 132.933 243.283, 129.167 244.500, 118.500 244.499 C 109.604 244.499, 107.944 244.205, 103.460 241.839 C 97.283 238.579, 90.511 231.408, 87.781 225.237 C 83.444 215.434, 84.610 202.594, 90.684 193.250 C 93.128 189.490, 97 187.431, 97 189.891 C 97 190.380, 98.515 190.958, 100.367 191.174 L 103.734 191.567 99.360 182.144 C 95.994 174.892, 95.247 172.408, 96.116 171.361 C 98.082 168.991, 98.993 169.822, 102.539 177.222 L 106 184.444 106 174.829 C 106 167.205, 105.689 165.095, 104.500 164.638 C 103.199 164.139, 103 158.415, 103 121.531 L 103 79 78.250 79.004 C 55.482 79.007, 53.244 79.164, 50.304 80.956 M 262 140.584 L 262 202.261 265.931 197.324 C 270.430 191.674, 279.454 185.016, 287.340 181.528 C 293.157 178.956, 302.547 176.889, 304.686 177.710 C 305.409 177.987, 306 177.694, 306 177.059 C 306 175.128, 320.829 156.188, 322.728 155.694 C 324.336 155.275, 324.341 155.221, 322.787 155.116 C 321.210 155.009, 321.051 152.216, 320.787 120.022 L 320.500 85.043 317.729 82.272 L 314.958 79.500 288.479 79.203 L 262 78.907 262 140.584 M 40.477 167 C 40.477 211.825, 40.600 230.163, 40.750 207.750 C 40.900 185.338, 40.900 148.663, 40.750 126.250 C 40.600 103.838, 40.477 122.175, 40.477 167 M 185.437 121.250 L 182.500 124.500 185.750 121.563 C 187.537 119.948, 189 118.485, 189 118.313 C 189 117.540, 188.175 118.221, 185.437 121.250 M 207.437 124.250 L 204.500 127.500 207.750 124.563 C 209.537 122.948, 211 121.485, 211 121.313 C 211 120.540, 210.175 121.221, 207.437 124.250 M 56.686 123.647 C 56.309 124.025, 56 125.158, 56 126.167 C 56 127.889, 57.335 128, 78.070 128 L 100.139 128 99.820 125.750 C 99.501 123.508, 99.426 123.499, 78.436 123.231 C 66.851 123.083, 57.063 123.270, 56.686 123.647 M 265.667 123.667 C 265.300 124.033, 265 125.158, 265 126.167 C 265 127.887, 266.316 128, 286.441 128 C 308.038 128, 310.560 127.585, 307.964 124.456 C 306.978 123.269, 303.019 123, 286.544 123 C 275.428 123, 266.033 123.300, 265.667 123.667 M 201.437 136.250 L 198.500 139.500 201.750 136.563 C 204.779 133.825, 205.460 133, 204.687 133 C 204.515 133, 203.052 134.463, 201.437 136.250 M 282.491 157.015 C 282.126 157.605, 282.383 158.756, 283.061 159.573 C 284.053 160.769, 286.662 161.004, 296.397 160.780 C 307.740 160.518, 308.500 160.374, 308.500 158.500 C 308.500 156.620, 307.740 156.483, 295.827 156.221 C 287.590 156.039, 282.922 156.317, 282.491 157.015 M 56.380 158.452 C 55.219 161.479, 57.139 162, 69.452 162 C 79.008 162, 81.905 161.690, 82.315 160.622 C 83.420 157.743, 80.643 157, 68.769 157 C 59.348 157, 56.824 157.296, 56.380 158.452 M 362 175.500 C 363.292 176.875, 364.574 178, 364.849 178 C 365.124 178, 364.292 176.875, 363 175.500 C 361.708 174.125, 360.426 173, 360.151 173 C 359.876 173, 360.708 174.125, 362 175.500 M 359 179.313 C 359 179.485, 360.462 180.948, 362.250 182.563 L 365.500 185.500 362.563 182.250 C 359.825 179.221, 359 178.540, 359 179.313 M 311.429 205.500 C 311.429 218.150, 311.573 223.187, 311.747 216.694 C 311.922 210.200, 311.921 199.850, 311.746 193.694 C 311.571 187.537, 311.428 192.850, 311.429 205.500 M 306.426 206.500 C 306.427 218.600, 306.571 223.413, 306.747 217.195 C 306.923 210.977, 306.922 201.077, 306.746 195.195 C 306.569 189.313, 306.425 194.400, 306.426 206.500 M 56 191.893 C 56 194.595, 57.821 195, 69.959 195 C 78.191 195, 81.042 194.654, 81.964 193.544 C 84.371 190.643, 82.009 190, 68.941 190 C 56.910 190, 56 190.133, 56 191.893 M 271.924 197.750 L 269.500 200.500 272.250 198.076 C 273.762 196.742, 275 195.505, 275 195.326 C 275 194.541, 274.190 195.180, 271.924 197.750 M 342.803 215.746 C 348.470 215.925, 357.470 215.924, 362.803 215.745 C 368.136 215.565, 363.500 215.419, 352.500 215.420 C 341.500 215.421, 337.136 215.568, 342.803 215.746 M 340.750 220.747 C 346.938 220.922, 357.063 220.922, 363.250 220.747 C 369.438 220.571, 364.375 220.428, 352 220.428 C 339.625 220.428, 334.563 220.571, 340.750 220.747 M 195.768 229.725 C 197.565 229.947, 200.265 229.943, 201.768 229.715 C 203.271 229.486, 201.800 229.304, 198.500 229.310 C 195.200 229.315, 193.971 229.502, 195.768 229.725 M 97.230 259.750 L 141.959 260.021 142.251 280.760 L 142.543 301.500 142.771 280.250 L 143 259 97.750 259.239 L 52.500 259.479 97.230 259.750 M 147.447 260.278 C 147.177 260.981, 147.089 270.544, 147.251 281.528 L 147.545 301.500 147.772 280.762 L 148 260.025 184.250 259.750 L 220.500 259.474 184.219 259.237 C 155.516 259.050, 147.835 259.267, 147.447 260.278 M 230.287 259.740 C 233.469 259.939, 238.419 259.937, 241.287 259.736 C 244.154 259.535, 241.550 259.372, 235.500 259.374 C 229.450 259.376, 227.104 259.541, 230.287 259.740 M 348.453 273.250 L 344.500 277.500 348.750 273.547 C 352.702 269.871, 353.460 269, 352.703 269 C 352.540 269, 350.627 270.913, 348.453 273.250 M 338.411 299 C 338.411 308.625, 338.561 312.563, 338.745 307.750 C 338.928 302.938, 338.928 295.063, 338.745 290.250 C 338.561 285.438, 338.411 289.375, 338.411 299 M 292 340.313 C 292 340.485, 293.462 341.948, 295.250 343.563 L 298.500 346.500 295.563 343.250 C 292.825 340.221, 292 339.540, 292 340.313 M 6.439 385.500 L 6.500 393.500 14.500 393.561 L 22.500 393.621 14.790 393.271 L 7.080 392.920 6.729 385.210 L 6.379 377.500 6.439 385.500 M 394.199 384.710 L 394 392.919 385.750 393.256 L 377.500 393.593 385.781 393.796 C 391.939 393.948, 394.195 393.655, 394.578 392.656 C 394.862 391.917, 394.937 387.980, 394.746 383.906 L 394.397 376.500 394.199 384.710 M 23.150 380.750 L 23 384 200.500 384 L 378 384 377.850 380.750 C 377.711 377.725, 377.671 377.690, 377.284 380.250 L 376.867 383 200.500 383 L 24.133 383 23.716 380.250 C 23.329 377.690, 23.289 377.725, 23.150 380.750 M 9.405 385 L 9.500 390.500 15 390.595 L 20.500 390.691 15.301 390.295 L 10.101 389.899 9.705 384.699 L 9.309 379.500 9.405 385 M 391.175 384.698 L 391 389.895 385.750 390.263 L 380.500 390.630 385.781 390.815 C 391.827 391.027, 392.324 390.447, 391.738 383.864 C 391.350 379.506, 391.349 379.507, 391.175 384.698 M 23.195 389.500 C 23.215 391.150, 23.439 391.704, 23.693 390.731 C 23.947 389.758, 23.930 388.408, 23.656 387.731 C 23.382 387.054, 23.175 387.850, 23.195 389.500 M 377.195 389.500 C 377.215 391.150, 377.439 391.704, 377.693 390.731 C 377.947 389.758, 377.930 388.408, 377.656 387.731 C 377.382 387.054, 377.175 387.850, 377.195 389.500" stroke="none" fill="#bfa2fe" fill-rule="evenodd"/><path d="M 174.500 63.409 C 164.150 65.974, 155.279 72.612, 151.004 80.993 C 148.628 85.650, 148.866 86.521, 152.729 87.301 C 154.253 87.608, 156.227 88.141, 157.116 88.486 C 158.270 88.932, 159.743 87.704, 162.264 84.196 C 171.068 71.941, 189.220 70.374, 199.801 80.955 C 205.242 86.396, 206.471 89.621, 206.486 98.500 C 206.503 108.407, 204.296 112.683, 195.523 119.742 C 182.276 130.399, 179.017 137.575, 178.259 157.750 L 177.724 172 183.862 172 L 190 172 190.009 158.250 C 190.018 144.948, 190.112 144.337, 192.888 139.500 C 194.466 136.750, 199.385 131.226, 203.818 127.224 C 212.642 119.258, 216.242 113.376, 217.996 104.062 C 221.342 86.288, 208.631 67.711, 190.147 63.360 C 183.397 61.772, 181.079 61.779, 174.500 63.409 M 329.900 169.100 C 328.158 170.842, 328 172.689, 328 191.309 C 328 205.989, 328.347 212.092, 329.251 213.329 C 330.377 214.869, 332.697 215.013, 352.393 214.770 C 377.805 214.457, 377.292 214.659, 375.085 205.813 C 370.558 187.666, 354.430 171.885, 336.650 168.204 C 332.406 167.325, 331.563 167.437, 329.900 169.100 M 294.500 184.381 C 269.632 192.425, 254.713 216.583, 258.982 241.894 C 261.199 255.035, 267.866 265.419, 281.274 276.610 L 285 279.720 285 297.789 C 285 319.769, 284.581 319, 296.571 319 L 305 319 305 290.622 C 305 266.997, 305.244 262.042, 306.456 261.036 C 309.689 258.353, 310 260.900, 310 290.059 L 310 319 319.566 319 C 333.857 319, 333 320.306, 333 298.528 L 333 280.126 335.750 277.621 C 337.262 276.243, 340.686 273.188, 343.358 270.831 C 351.391 263.745, 357.445 253.103, 359.414 242.605 C 360.646 236.040, 360.499 236, 335.312 236 C 321.927 236, 312.097 235.587, 310.957 234.977 C 306.962 232.839, 306.517 230.285, 306 206.500 L 305.500 183.500 302 183.293 C 300.075 183.180, 296.700 183.669, 294.500 184.381 M 115.341 190.738 L 109.182 191.091 113.773 201.064 C 116.298 206.549, 118.690 210.691, 119.089 210.268 C 119.488 209.846, 121.043 206.575, 122.544 203 C 124.045 199.425, 125.893 195.037, 126.650 193.250 L 128.027 190 124.763 190.193 C 122.969 190.299, 118.728 190.544, 115.341 190.738 M 132.613 193.250 C 131.835 195.037, 129.108 201.429, 126.553 207.453 C 121.445 219.497, 120.370 221.227, 118.262 220.793 C 117.480 220.632, 113.808 213.975, 110.103 206 C 104.618 194.193, 102.946 191.439, 101.102 191.170 C 98.522 190.794, 97.096 192.317, 93.364 199.437 C 87.702 210.240, 89.876 223.016, 98.893 231.941 C 114.026 246.917, 139.584 239.998, 145.602 219.297 C 148.215 210.310, 145.835 199.928, 139.517 192.750 C 136.333 189.133, 134.341 189.277, 132.613 193.250 M 180.624 195.286 C 178.485 196.849, 178.148 201.269, 179.997 203.497 C 182.048 205.968, 186.711 205.370, 188.667 202.385 C 190.202 200.042, 190.227 199.495, 188.909 197.135 C 187.216 194.104, 183.404 193.253, 180.624 195.286 M 326.304 230.747 C 332.247 230.924, 341.697 230.923, 347.304 230.745 C 352.912 230.567, 348.050 230.422, 336.500 230.423 C 324.950 230.424, 320.362 230.570, 326.304 230.747" stroke="none" fill="#f9e079" fill-rule="evenodd"/><path d="M 110.223 46.557 L 108 48.113 108 105.998 C 108 143.509, 107.648 164.099, 107 164.500 C 105.421 165.476, 105.773 183.521, 107.449 187.532 C 108.851 190.888, 109.070 190.998, 114.199 190.926 C 117.115 190.885, 121.495 190.548, 123.933 190.176 L 128.366 189.500 136.117 171.616 C 140.379 161.780, 144.350 153.250, 144.941 152.659 C 145.705 151.895, 146.479 152.050, 147.629 153.201 C 149.116 154.688, 148.650 156.193, 141.762 172.158 C 136.100 185.280, 134.629 189.582, 135.715 189.838 C 136.505 190.024, 137.766 189.349, 138.517 188.338 C 139.594 186.889, 140.266 186.730, 141.691 187.584 C 144.150 189.058, 149.809 198.592, 151.139 203.500 C 152.659 209.112, 151.698 219.635, 149.135 225.428 L 146.969 230.324 181.648 229.662 C 200.721 229.298, 224.475 229, 234.435 229 L 252.542 229 253.994 222.750 C 255.189 217.606, 255.497 201.550, 255.736 132 C 256.006 53.344, 255.908 47.414, 254.322 46.250 C 252.997 45.278, 237.025 45, 182.531 45 C 120.716 45, 112.183 45.184, 110.223 46.557 M 172.618 58.049 C 161.871 60.748, 149.800 70.584, 144.957 80.588 C 141.640 87.441, 142.803 89.873, 150.504 92.178 C 158.862 94.680, 161.541 94.525, 163.703 91.417 C 168.133 85.050, 171.408 82.010, 175.535 80.434 C 188.374 75.530, 201.591 85.003, 201.441 99 C 201.362 106.321, 199.362 109.744, 191.517 115.987 C 183.337 122.495, 177.551 130.477, 174.982 138.793 C 173.397 143.926, 173 148.079, 173 159.534 C 173 177.145, 172.909 177, 184 177 C 194.991 177, 194.995 176.995, 195.022 160.679 C 195.050 143.916, 195.820 142.104, 207.360 131.644 C 214.575 125.104, 216.649 122.507, 219.737 116.144 C 223.259 108.885, 223.446 107.996, 223.446 98.500 C 223.446 89.023, 223.254 88.105, 219.774 80.935 C 212.823 66.613, 200.096 58.080, 184.710 57.424 C 180.194 57.231, 174.753 57.512, 172.618 58.049 M 181.500 188.860 C 170.899 192.250, 170.168 206.590, 180.423 209.974 C 190.006 213.137, 198.266 203.216, 193.585 194.165 C 191.527 190.185, 185.556 187.564, 181.500 188.860 M 295.275 330.094 C 295.906 337.056, 298.158 340.237, 303.764 342.087 C 307.974 343.477, 314.172 342.772, 317.622 340.512 C 320.793 338.434, 323 333.313, 323 328.032 L 323 324 308.861 324 L 294.722 324 295.275 330.094" stroke="none" fill="#8af5ed" fill-rule="evenodd"/></svg>