<svg xmlns="http://www.w3.org/2000/svg" width="400" height="400" viewBox="0 0 400 400" version="1.1"><path d="M -0 200.002 L -0 400.005 200.250 399.752 L 400.500 399.500 400.752 199.750 L 401.005 0 200.502 0 L 0 0 -0 200.002 M 0.490 200.500 C 0.490 310.500, 0.607 355.352, 0.750 300.170 C 0.893 244.989, 0.893 154.989, 0.750 100.170 C 0.607 45.352, 0.490 90.500, 0.490 200.500 M 64.185 29.118 C 51.823 31.175, 39.544 41.047, 34.835 52.715 L 32.500 58.500 32.221 194 C 31.943 329.227, 31.947 329.513, 34.040 336.074 C 37.761 347.736, 46.763 356.959, 58.426 361.059 C 63.790 362.944, 67.875 363, 199.500 363 C 331.125 363, 335.210 362.944, 340.574 361.059 C 352.237 356.959, 361.239 347.736, 364.960 336.074 C 367.053 329.513, 367.057 329.227, 366.779 194 L 366.500 58.500 364.165 52.715 C 361.138 45.216, 352.843 36.227, 345.738 32.748 C 342.758 31.289, 337.436 29.627, 333.910 29.055 C 325.935 27.761, 71.985 27.820, 64.185 29.118 M 40.230 215.750 L 40.500 331.500 42.799 336.500 C 45.700 342.807, 51.073 348.412, 57.500 351.836 L 62.500 354.500 199.500 354.500 L 336.500 354.500 341.500 351.836 C 347.927 348.412, 353.300 342.807, 356.201 336.500 L 358.500 331.500 358.770 215.750 L 359.041 100 199.500 100 L 39.959 100 40.230 215.750 M 95.822 116.963 C 91.385 118.331, 86.225 122.905, 84.050 127.396 C 82.144 131.334, 82 133.462, 82 157.691 C 82 172.023, 82.281 185.157, 82.625 186.877 C 82.969 188.596, 84.996 191.986, 87.129 194.409 C 93.477 201.621, 95.610 202, 129.863 202 L 159.370 202 168.056 210.500 C 177.636 219.874, 179.896 220.714, 184.620 216.651 C 186.911 214.679, 187.422 213.313, 187.795 208.151 L 188.240 202 191.994 202 C 200.651 202, 208.606 197.055, 212.104 189.500 C 213.759 185.926, 213.958 182.651, 213.978 158.739 C 213.999 133.496, 213.879 131.721, 211.871 127.448 C 210.490 124.512, 208.116 121.789, 205.121 119.709 L 200.500 116.500 149.500 116.318 C 121.450 116.218, 97.295 116.508, 95.822 116.963 M 271.648 116.974 C 264.190 119.347, 257.753 126.586, 255.878 134.710 C 254.954 138.713, 255.036 140.613, 256.329 145.057 C 257.200 148.051, 258.554 151.377, 259.338 152.449 C 260.653 154.246, 260.439 154.604, 256.586 157.048 C 249.197 161.734, 243.258 170.903, 240.985 181.134 C 239.513 187.763, 240.228 192.749, 243.194 196.520 C 247.211 201.626, 249.631 202, 278.652 202 C 303.517 202, 305.661 201.858, 309.591 199.956 C 317.980 195.895, 319.413 184.375, 313.120 171.591 C 310.275 165.813, 303.249 157.917, 298.671 155.356 C 296.957 154.397, 296.984 154.142, 299.182 150.422 C 301.018 147.316, 301.500 145.029, 301.500 139.426 C 301.500 133.299, 301.095 131.697, 298.474 127.453 C 294.334 120.751, 287.670 116.705, 280.173 116.342 C 277.053 116.191, 273.217 116.475, 271.648 116.974 M 274.500 124.733 C 267.678 126.441, 263.572 132.823, 264.225 140.703 C 264.601 145.239, 265.244 146.665, 268.336 149.832 C 273.475 155.095, 273.183 157.367, 266.964 160.518 C 259.862 164.117, 254.792 169.031, 251.822 175.196 C 248.161 182.795, 247.517 188.181, 249.915 191.145 C 251.812 193.490, 251.925 193.501, 277.083 193.800 C 304.260 194.123, 307.545 193.661, 308.623 189.367 C 309.386 186.325, 308.332 180.604, 306.067 175.500 C 303.523 169.768, 298.341 164.582, 292 161.425 C 283.604 157.244, 283.317 156.216, 288.880 150.250 C 291.162 147.804, 293.034 144.634, 293.423 142.559 C 295.507 131.449, 285.464 121.988, 274.500 124.733 M 116 236.939 C 100.981 239.958, 92.736 256.266, 99.499 269.581 L 101.997 274.500 99.249 276.438 C 89.249 283.488, 83.115 293.987, 82.345 305.370 C 81.937 311.406, 82.184 313.008, 83.953 315.810 C 87.732 321.794, 89.805 322.120, 121.992 321.793 L 150.842 321.500 153.516 319 C 159.692 313.226, 160.364 306.394, 155.923 294.524 C 153.684 288.539, 145.653 278.906, 140.818 276.406 L 137.927 274.911 139.957 272.060 C 143.476 267.119, 144.502 260.239, 142.664 253.916 C 139.181 241.935, 127.655 234.597, 116 236.939 M 200.456 237.125 C 195.208 238.307, 189.225 243.294, 186.893 248.429 C 185.242 252.064, 185.042 255.402, 185.022 279.593 C 185.001 306.045, 185.055 306.790, 187.327 311.093 C 190.795 317.661, 196.290 321.093, 204.381 321.742 L 211 322.274 211 327.187 C 211 332.522, 212.978 337.394, 215.545 338.379 C 220.624 340.328, 223.123 339.131, 231.889 330.554 L 240.520 322.108 272.176 321.804 L 303.832 321.500 308.089 318.500 C 310.431 316.850, 313.394 313.517, 314.673 311.093 C 316.945 306.790, 316.999 306.045, 316.978 279.593 C 316.958 255.402, 316.758 252.064, 315.107 248.429 C 312.628 242.971, 306.794 238.336, 300.779 237.046 C 294.729 235.749, 206.257 235.818, 200.456 237.125 M 5.209 383.210 L 5.500 391.500 13.413 391.795 C 21.821 392.108, 22.955 391.570, 22.985 387.250 L 23 385 199.500 385 L 376 385 376.015 387.250 C 376.045 391.570, 377.179 392.108, 385.587 391.795 L 393.500 391.500 393.791 383.210 L 394.082 374.921 385.291 375.210 C 376.526 375.499, 376.499 375.508, 376.184 378.250 L 375.867 381 199.500 381 L 23.133 381 22.816 378.250 C 22.501 375.508, 22.474 375.499, 13.709 375.210 L 4.918 374.921 5.209 383.210 M 9 383 L 9 388 14 388 L 19 388 19 383 L 19 378 14 378 L 9 378 9 383 M 380 383 L 380 388 385 388 L 390 388 390 383 L 390 378 385 378 L 380 378 380 383" stroke="none" fill="#ffffff" fill-rule="evenodd"/><path d="M 43.437 40.250 L 40.500 43.500 43.750 40.563 C 45.538 38.948, 47 37.485, 47 37.313 C 47 36.540, 46.175 37.221, 43.437 40.250 M 352 37.313 C 352 37.485, 353.462 38.948, 355.250 40.563 L 358.500 43.500 355.563 40.250 C 352.825 37.221, 352 36.540, 352 37.313 M 50.437 45.250 L 47.500 48.500 50.750 45.563 C 52.538 43.948, 54 42.485, 54 42.313 C 54 41.540, 53.175 42.221, 50.437 45.250 M 345 42.313 C 345 42.485, 346.462 43.948, 348.250 45.563 L 351.500 48.500 348.563 45.250 C 345.825 42.221, 345 41.540, 345 42.313 M 32.485 196 C 32.485 268.875, 32.604 298.688, 32.750 262.250 C 32.895 225.813, 32.895 166.188, 32.750 129.750 C 32.604 93.313, 32.485 123.125, 32.485 196 M 366.485 196 C 366.485 268.875, 366.604 298.688, 366.750 262.250 C 366.895 225.813, 366.895 166.188, 366.750 129.750 C 366.604 93.313, 366.485 123.125, 366.485 196 M 199.246 99.748 L 358.991 100.006 359.252 212.253 L 359.513 324.500 359.506 212 L 359.500 99.500 199.500 99.495 L 39.500 99.491 199.246 99.748 M 123.250 116.749 C 136.863 116.906, 159.137 116.906, 172.750 116.749 C 186.363 116.592, 175.225 116.463, 148 116.463 C 120.775 116.463, 109.637 116.592, 123.250 116.749 M 276.762 116.707 C 278.006 116.946, 279.806 116.937, 280.762 116.687 C 281.718 116.437, 280.700 116.241, 278.500 116.252 C 276.300 116.263, 275.518 116.468, 276.762 116.707 M 92.924 127.750 L 90.500 130.500 93.250 128.076 C 95.820 125.810, 96.459 125, 95.674 125 C 95.495 125, 94.258 126.237, 92.924 127.750 M 82.438 158.500 C 82.437 173.350, 82.576 179.564, 82.747 172.310 C 82.918 165.055, 82.918 152.905, 82.748 145.310 C 82.578 137.714, 82.438 143.650, 82.438 158.500 M 213.436 158.500 C 213.436 172.800, 213.577 178.511, 213.748 171.191 C 213.919 163.871, 213.918 152.171, 213.747 145.191 C 213.575 138.211, 213.435 144.200, 213.436 158.500 M 89.431 158.500 C 89.432 171.700, 89.574 176.962, 89.747 170.193 C 89.921 163.424, 89.920 152.624, 89.746 146.193 C 89.572 139.762, 89.431 145.300, 89.431 158.500 M 206.432 159 C 206.432 172.475, 206.574 177.988, 206.747 171.250 C 206.920 164.512, 206.920 153.488, 206.747 146.750 C 206.574 140.012, 206.432 145.525, 206.432 159 M 301.252 139.500 C 301.263 141.700, 301.468 142.482, 301.707 141.238 C 301.946 139.994, 301.937 138.194, 301.687 137.238 C 301.437 136.282, 301.241 137.300, 301.252 139.500 M 305 161.500 C 306.866 163.425, 308.617 165, 308.892 165 C 309.167 165, 307.866 163.425, 306 161.500 C 304.134 159.575, 302.383 158, 302.108 158 C 301.833 158, 303.134 159.575, 305 161.500 M 316.195 185.500 C 316.215 187.150, 316.439 187.704, 316.693 186.731 C 316.947 185.758, 316.930 184.408, 316.656 183.731 C 316.382 183.054, 316.175 183.850, 316.195 185.500 M 88 195.500 C 89.292 196.875, 90.574 198, 90.849 198 C 91.124 198, 90.292 196.875, 89 195.500 C 87.708 194.125, 86.426 193, 86.151 193 C 85.876 193, 86.708 194.125, 88 195.500 M 206.924 195.750 L 204.500 198.500 207.250 196.076 C 208.762 194.742, 210 193.505, 210 193.326 C 210 192.541, 209.190 193.180, 206.924 195.750 M 170 202.500 C 174.651 207.175, 178.681 211, 178.956 211 C 179.231 211, 175.651 207.175, 171 202.500 C 166.349 197.825, 162.319 194, 162.044 194 C 161.769 194, 165.349 197.825, 170 202.500 M 167 209.500 C 171.651 214.175, 175.681 218, 175.956 218 C 176.231 218, 172.651 214.175, 168 209.500 C 163.349 204.825, 159.319 201, 159.044 201 C 158.769 201, 162.349 204.825, 167 209.500 M 310 242.500 C 311.292 243.875, 312.574 245, 312.849 245 C 313.124 245, 312.292 243.875, 311 242.500 C 309.708 241.125, 308.426 240, 308.151 240 C 307.876 240, 308.708 241.125, 310 242.500 M 103.437 244.250 L 100.500 247.500 103.750 244.563 C 106.779 241.825, 107.460 241, 106.687 241 C 106.515 241, 105.052 242.463, 103.437 244.250 M 316.438 279.500 C 316.437 294.350, 316.576 300.564, 316.747 293.310 C 316.918 286.055, 316.918 273.905, 316.748 266.310 C 316.578 258.714, 316.438 264.650, 316.438 279.500 M 185.436 279.500 C 185.436 293.800, 185.577 299.511, 185.748 292.191 C 185.919 284.871, 185.918 273.171, 185.747 266.191 C 185.575 259.211, 185.435 265.200, 185.436 279.500 M 192.432 279 C 192.432 292.475, 192.574 297.988, 192.747 291.250 C 192.920 284.512, 192.920 273.488, 192.747 266.750 C 192.574 260.012, 192.432 265.525, 192.432 279 M 97.252 259.500 C 97.263 261.700, 97.468 262.482, 97.707 261.238 C 97.946 259.994, 97.937 258.194, 97.687 257.238 C 97.437 256.282, 97.241 257.300, 97.252 259.500 M 309.431 279.500 C 309.432 292.700, 309.574 297.962, 309.747 291.193 C 309.921 284.424, 309.920 273.624, 309.746 267.193 C 309.572 260.762, 309.431 266.300, 309.431 279.500 M 111.250 272.579 C 112.213 273.722, 113 275.387, 113 276.279 C 113 277.171, 112.213 278.359, 111.250 278.920 C 110.287 279.481, 109.972 279.953, 110.550 279.970 C 112.117 280.015, 114 277.824, 114 275.955 C 114 275.050, 112.987 273.453, 111.750 272.405 C 109.502 270.502, 109.502 270.502, 111.250 272.579 M 144 279.313 C 144 279.485, 145.463 280.948, 147.250 282.563 L 150.500 285.500 147.563 282.250 C 144.825 279.221, 144 278.540, 144 279.313 M 98.453 287.250 L 94.500 291.500 98.750 287.547 C 102.702 283.871, 103.460 283, 102.703 283 C 102.540 283, 100.627 284.913, 98.453 287.250 M 82.195 305.500 C 82.215 307.150, 82.439 307.704, 82.693 306.731 C 82.947 305.758, 82.930 304.408, 82.656 303.731 C 82.382 303.054, 82.175 303.850, 82.195 305.500 M 196 310.500 C 197.292 311.875, 198.574 313, 198.849 313 C 199.124 313, 198.292 311.875, 197 310.500 C 195.708 309.125, 194.426 308, 194.151 308 C 193.876 308, 194.708 309.125, 196 310.500 M 105.750 321.748 C 113.587 321.917, 126.412 321.917, 134.250 321.748 C 142.087 321.579, 135.675 321.441, 120 321.441 C 104.325 321.441, 97.912 321.579, 105.750 321.748 M 204.264 321.718 C 205.784 321.947, 208.034 321.941, 209.264 321.704 C 210.494 321.467, 209.250 321.279, 206.500 321.286 C 203.750 321.294, 202.744 321.488, 204.264 321.718 M 255.812 321.748 C 264.233 321.916, 277.733 321.915, 285.812 321.748 C 293.890 321.580, 287 321.443, 270.500 321.443 C 254 321.444, 247.390 321.581, 255.812 321.748 M 133.172 355.750 C 169.292 355.895, 228.692 355.895, 265.172 355.750 C 301.652 355.604, 272.100 355.485, 199.500 355.485 C 126.900 355.485, 97.052 355.604, 133.172 355.750 M 5.336 383 C 5.336 387.125, 5.513 388.813, 5.728 386.750 C 5.944 384.688, 5.944 381.313, 5.728 379.250 C 5.513 377.188, 5.336 378.875, 5.336 383 M 393.336 383 C 393.336 387.125, 393.513 388.813, 393.728 386.750 C 393.944 384.688, 393.944 381.313, 393.728 379.250 C 393.513 377.188, 393.336 378.875, 393.336 383 M 9 377.567 C 12.359 378.318, 19.778 378.449, 19.346 377.750 C 19.091 377.337, 16.321 377.052, 13.191 377.116 C 10.061 377.180, 8.175 377.383, 9 377.567 M 379.654 377.750 C 379.400 378.163, 381.285 378.366, 383.845 378.201 C 391.148 377.732, 392.034 377.243, 385.809 377.116 C 382.679 377.052, 379.909 377.337, 379.654 377.750 M 379.079 383.691 C 379.036 385.996, 379.356 388.102, 379.791 388.371 C 380.226 388.640, 380.418 387.204, 380.219 385.180 C 379.672 379.646, 379.168 378.987, 379.079 383.691 M 18.825 386.326 C 18.452 388.151, 18.592 388.808, 19.218 388.182 C 19.751 387.649, 20.011 386.377, 19.794 385.356 C 19.503 383.981, 19.251 384.233, 18.825 386.326 M 110.829 384.750 C 159.960 384.893, 240.060 384.893, 288.829 384.750 C 337.598 384.606, 297.400 384.489, 199.500 384.489 C 101.600 384.489, 61.698 384.606, 110.829 384.750 M 10.250 391.728 C 12.313 391.944, 15.688 391.944, 17.750 391.728 C 19.813 391.513, 18.125 391.336, 14 391.336 C 9.875 391.336, 8.188 391.513, 10.250 391.728 M 381.250 391.728 C 383.313 391.944, 386.688 391.944, 388.750 391.728 C 390.813 391.513, 389.125 391.336, 385 391.336 C 380.875 391.336, 379.188 391.513, 381.250 391.728" stroke="none" fill="#784873" fill-rule="evenodd"/><path d="M 134.172 28.750 C 169.742 28.895, 228.242 28.895, 264.172 28.750 C 300.103 28.604, 271 28.485, 199.500 28.485 C 128 28.485, 98.603 28.604, 134.172 28.750 M 115.312 193.748 C 124.009 193.915, 137.959 193.915, 146.312 193.748 C 154.666 193.581, 147.550 193.444, 130.500 193.445 C 113.450 193.445, 106.616 193.582, 115.312 193.748 M 185.728 193.722 C 187.503 193.943, 190.653 193.946, 192.728 193.730 C 194.802 193.513, 193.350 193.333, 189.500 193.328 C 185.650 193.324, 183.952 193.501, 185.728 193.722 M 179.336 204 C 179.336 208.125, 179.513 209.813, 179.728 207.750 C 179.944 205.688, 179.944 202.313, 179.728 200.250 C 179.513 198.188, 179.336 199.875, 179.336 204 M 114.812 201.748 C 123.233 201.916, 136.733 201.915, 144.812 201.748 C 152.890 201.580, 146 201.443, 129.500 201.443 C 113 201.444, 106.390 201.581, 114.812 201.748 M 187.406 202.386 C 187.113 203.148, 187.049 205.735, 187.262 208.136 C 187.650 212.498, 187.651 212.498, 187.825 207.307 L 188 202.115 192.250 201.732 L 196.500 201.349 192.219 201.175 C 189.364 201.058, 187.760 201.462, 187.406 202.386 M 265.310 201.748 C 272.905 201.918, 285.055 201.918, 292.310 201.747 C 299.564 201.576, 293.350 201.437, 278.500 201.438 C 263.650 201.438, 257.714 201.578, 265.310 201.748 M 115.500 245.490 C 104.271 249.493, 101.703 262.846, 110.557 271.190 C 115.375 275.730, 114.822 277.828, 107.940 281.122 C 97.685 286.031, 90 297.341, 90 307.527 C 90 313.865, 90.644 314, 120.806 314 L 147.954 314 149.570 311.533 C 151.634 308.383, 150.780 302.570, 147.159 295.115 C 144.313 289.257, 139.812 284.948, 132.314 280.903 C 129.666 279.475, 127.351 277.545, 127.169 276.614 C 126.987 275.683, 128.425 273.165, 130.365 271.017 C 132.305 268.870, 134.360 265.376, 134.932 263.252 C 138.006 251.838, 126.695 241.500, 115.500 245.490 M 227.819 244.749 C 241.195 244.907, 262.795 244.907, 275.819 244.749 C 288.844 244.591, 277.900 244.462, 251.500 244.462 C 225.100 244.463, 214.444 244.592, 227.819 244.749 M 92.437 282.250 L 89.500 285.500 92.750 282.563 C 94.537 280.948, 96 279.485, 96 279.313 C 96 278.540, 95.175 279.221, 92.437 282.250 M 228.477 322.033 L 220.500 330.066 219.927 323.283 L 219.353 316.500 219.177 323.750 C 219.079 327.738, 219.347 331, 219.772 331 C 220.197 331, 224.349 327.175, 229 322.500 C 233.651 317.825, 237.230 314, 236.954 314 C 236.679 314, 232.864 317.615, 228.477 322.033 M 211.300 327 C 211.300 330.025, 211.487 331.262, 211.716 329.750 C 211.945 328.238, 211.945 325.762, 211.716 324.250 C 211.487 322.738, 211.300 323.975, 211.300 327 M 231.477 330.250 L 223.500 338.500 231.750 330.523 C 236.287 326.136, 240 322.424, 240 322.273 C 240 321.544, 238.885 322.588, 231.477 330.250 M 49 346.500 C 50.292 347.875, 51.574 349, 51.849 349 C 52.124 349, 51.292 347.875, 50 346.500 C 48.708 345.125, 47.426 344, 47.151 344 C 46.876 344, 47.708 345.125, 49 346.500 M 348.924 346.750 L 346.500 349.500 349.250 347.076 C 350.762 345.742, 352 344.505, 352 344.326 C 352 343.541, 351.190 344.180, 348.924 346.750 M 8.116 382.691 C 8.052 385.546, 8.346 388.096, 8.768 388.357 C 9.191 388.618, 9.392 386.957, 9.216 384.666 C 8.696 377.937, 8.241 377.118, 8.116 382.691 M 389.984 383.203 C 389.718 386.340, 389.865 388.540, 390.310 388.093 C 390.756 387.645, 390.974 385.079, 390.795 382.390 L 390.468 377.500 389.984 383.203 M 110.829 381.750 C 159.960 381.893, 240.060 381.893, 288.829 381.750 C 337.598 381.606, 297.400 381.489, 199.500 381.489 C 101.600 381.489, 61.698 381.606, 110.829 381.750 M 12.762 388.707 C 14.006 388.946, 15.806 388.937, 16.762 388.687 C 17.718 388.437, 16.700 388.241, 14.500 388.252 C 12.300 388.263, 11.518 388.468, 12.762 388.707 M 382.762 388.707 C 384.006 388.946, 385.806 388.937, 386.762 388.687 C 387.718 388.437, 386.700 388.241, 384.500 388.252 C 382.300 388.263, 381.518 388.468, 382.762 388.707" stroke="none" fill="#ffac82" fill-rule="evenodd"/><path d="M 98.094 125.306 C 96.220 125.963, 93.745 127.769, 92.594 129.321 C 90.618 131.982, 90.483 133.579, 90.202 157.568 C 89.942 179.735, 90.120 183.450, 91.587 186.542 C 94.588 192.867, 95.381 193, 130.079 193 L 161.258 193 170.129 201.681 L 179 210.362 179 203.681 C 179 194.400, 180.490 193, 190.365 193 C 196.320 193, 198.239 192.600, 200.385 190.912 C 205.739 186.701, 206 185.178, 206 158.198 C 206 133.920, 205.943 133.211, 203.715 129.898 C 202.410 127.956, 199.945 125.988, 197.965 125.306 C 193.054 123.615, 102.921 123.615, 98.094 125.306 M 227.250 236.749 C 240.313 236.907, 261.688 236.907, 274.750 236.749 C 287.813 236.591, 277.125 236.462, 251 236.462 C 224.875 236.462, 214.188 236.591, 227.250 236.749 M 198.615 247.088 C 193.263 251.298, 193 252.829, 193.004 279.700 C 193.007 302.811, 193.145 304.726, 195.026 307.810 C 197.684 312.171, 202.385 314, 210.933 314 C 219.315 314, 220 314.768, 220 324.162 L 220 330.456 228.271 322.228 L 236.542 314 267.521 313.998 C 311.767 313.996, 309.183 316.271, 308.774 277.672 L 308.500 251.843 304.765 248.422 L 301.029 245 251.150 245 C 202.081 245, 201.227 245.034, 198.615 247.088 M 22.195 378.500 C 22.215 380.150, 22.439 380.704, 22.693 379.731 C 22.947 378.758, 22.930 377.408, 22.656 376.731 C 22.382 376.054, 22.175 376.850, 22.195 378.500 M 376.195 378.500 C 376.215 380.150, 376.439 380.704, 376.693 379.731 C 376.947 378.758, 376.930 377.408, 376.656 376.731 C 376.382 376.054, 376.175 376.850, 376.195 378.500 M 22.195 387.500 C 22.215 389.150, 22.439 389.704, 22.693 388.731 C 22.947 387.758, 22.930 386.408, 22.656 385.731 C 22.382 385.054, 22.175 385.850, 22.195 387.500 M 376.195 387.500 C 376.215 389.150, 376.439 389.704, 376.693 388.731 C 376.947 387.758, 376.930 386.408, 376.656 385.731 C 376.382 385.054, 376.175 385.850, 376.195 387.500" stroke="none" fill="#ffd179" fill-rule="evenodd"/><path d="M 61.384 30.412 C 50.814 32.977, 41.150 41.181, 36.160 51.825 L 33.500 57.500 33.500 196 L 33.500 334.500 36.188 340.236 C 41.180 350.888, 52.008 359.374, 63.799 361.876 C 71.297 363.466, 327.703 363.466, 335.201 361.876 C 346.992 359.374, 357.820 350.888, 362.812 340.236 L 365.500 334.500 365.500 196 L 365.500 57.500 362.840 51.825 C 357.742 40.950, 348.173 32.956, 337.147 30.360 C 329.165 28.482, 69.137 28.530, 61.384 30.412 M 63.365 37.089 C 57.902 38.672, 50.651 44.311, 46.729 50.026 C 41.481 57.674, 40.026 64.003, 40.012 79.250 L 40 92 199.500 92 L 359 92 358.988 79.250 C 358.981 71.294, 358.429 64.442, 357.519 61.026 C 354.661 50.283, 344.814 39.709, 335.177 37.033 C 330.472 35.726, 67.880 35.780, 63.365 37.089 M 66.163 63.878 C 65.427 64.345, 64.977 65.800, 65.163 67.113 L 65.500 69.500 82.891 69.500 C 98.033 69.500, 100.418 69.285, 101.333 67.834 C 102.096 66.625, 102.023 65.733, 101.070 64.584 C 99.969 63.257, 97.135 63.002, 83.628 63.015 C 74.757 63.024, 66.898 63.412, 66.163 63.878 M 40.238 216.247 L 40.500 333.500 42.961 338.317 C 45.966 344.200, 52.559 350.444, 58.824 353.339 L 63.500 355.500 199.500 355.500 L 335.500 355.500 340.176 353.339 C 350.513 348.561, 357.312 339.366, 359.086 327.761 C 359.665 323.974, 359.936 277.643, 359.772 210.500 L 359.500 99.500 199.738 99.247 L 39.976 98.994 40.238 216.247 M 93.121 119.169 C 90.276 120.577, 87.737 122.922, 85.871 125.864 L 83 130.392 83 158.131 C 83 175.298, 83.405 186.943, 84.064 188.685 C 85.576 192.687, 89.844 196.949, 94.500 199.104 C 98.114 200.777, 101.448 200.958, 129.022 200.978 L 159.544 201 168 209.500 C 175.097 216.634, 176.970 218, 179.655 218 C 184.512 218, 187 214.228, 187 206.865 L 187 201 192.250 200.978 C 200.945 200.942, 209.269 195.743, 211.936 188.685 C 212.595 186.943, 213 175.298, 213 158.131 L 213 130.392 210.113 125.840 C 208.195 122.814, 205.742 120.569, 202.798 119.144 C 198.449 117.039, 197.455 117, 147.934 117.001 C 98.216 117.002, 97.438 117.032, 93.121 119.169 M 269.397 118.854 C 257.519 124.403, 252.809 138.346, 258.878 149.990 C 260.109 152.352, 260.752 154.590, 260.308 154.964 C 259.864 155.338, 257.527 157.160, 255.116 159.012 C 244.158 167.431, 237.769 186.188, 242.960 194.701 C 246.662 200.773, 247.950 201, 278.700 200.996 C 304.491 200.993, 306.731 200.852, 309.696 199.044 C 314.574 196.069, 316.280 192.754, 316.137 186.528 C 315.995 180.369, 313.854 173.310, 310.540 168.071 C 308.342 164.597, 301.093 157.516, 297.671 155.500 C 296.111 154.581, 296.184 154.093, 298.560 149.500 C 300.740 145.284, 301.091 143.463, 300.798 137.889 C 300.384 130.011, 297.298 124.549, 290.852 120.283 C 285.362 116.650, 275.516 115.994, 269.397 118.854 M 93.490 127.310 C 89.109 131.691, 88.758 134.549, 89.166 162.554 C 89.653 195.975, 87.046 194, 130.673 194 L 161.544 194 170 202.500 C 174.651 207.175, 178.803 211, 179.228 211 C 179.653 211, 180 207.715, 180 203.700 C 180 199.356, 180.486 195.914, 181.200 195.200 C 181.901 194.499, 185.266 194, 189.299 194 C 198.348 194, 202.651 191.979, 205.105 186.576 C 206.731 182.995, 206.959 179.722, 206.978 159.616 C 207.003 133.974, 206.368 130.145, 201.470 126.409 L 198.311 124 147.556 124 L 96.800 124 93.490 127.310 M 269.999 126.250 C 263.987 130.354, 261.533 137.971, 264.060 144.685 C 264.642 146.233, 266.728 149.156, 268.694 151.179 C 270.879 153.429, 272.042 155.448, 271.686 156.376 C 271.366 157.210, 268.622 159.066, 265.588 160.502 C 259.661 163.306, 253.341 169.671, 250.424 175.775 C 247.760 181.349, 247.307 189.577, 249.529 192.032 C 251.217 193.897, 252.725 194, 278.464 194 C 310.114 194, 309.623 194.128, 309.286 185.997 C 308.847 175.443, 301.461 164.899, 291.107 160.050 C 285.235 157.300, 284.313 154.336, 288.479 151.606 C 294.584 147.605, 296.166 136.529, 291.505 130.418 C 288.044 125.880, 284.146 124, 278.198 124 C 274.758 124, 272.313 124.671, 269.999 126.250 M 113.838 238.182 C 108.938 239.487, 102.155 245.448, 99.886 250.444 C 97.179 256.405, 97.416 264.603, 100.461 270.330 L 102.921 274.958 98.562 277.958 C 90.414 283.563, 84.503 293.118, 83.175 302.829 C 82.086 310.791, 83.583 315.802, 87.924 318.728 C 91.238 320.961, 91.795 321, 120.244 321 C 152.320 321, 153.150 320.851, 156.591 314.461 C 159.091 309.819, 158.034 300.543, 154.094 292.539 C 151.257 286.777, 144.224 278.903, 139.603 276.317 C 137.801 275.309, 137.831 275.050, 140.364 269.696 C 144.902 260.103, 143.426 251.383, 136 243.925 C 129.771 237.669, 122.673 235.829, 113.838 238.182 M 198.637 238.447 C 196.513 239.214, 193.438 241.115, 191.805 242.671 C 186.270 247.945, 186 249.677, 186 279.926 L 186 307.608 188.943 312.249 C 192.591 318.001, 196.631 320.184, 205 320.925 L 211.500 321.500 211.769 327 C 212.099 333.745, 213.427 336.520, 217.043 338.018 C 220.820 339.582, 222.720 338.467, 232.628 328.872 L 240.756 321 271.062 321 C 299.817 321, 301.591 320.892, 305.711 318.898 C 308.100 317.741, 311.280 315.189, 312.777 313.225 L 315.500 309.656 315.500 279.421 L 315.500 249.186 312.394 245.343 C 305.749 237.122, 308.764 237.528, 252.500 237.276 C 211.805 237.093, 201.781 237.311, 198.637 238.447 M 113.271 245.964 C 107.828 248.434, 105.009 252.983, 105.004 259.300 C 105 264.676, 106.566 268.338, 110.405 271.924 C 114.442 275.696, 113.766 277.584, 107.190 280.904 C 97.040 286.028, 90.224 295.848, 89.783 305.983 C 89.422 314.277, 88.359 314, 120.587 314 C 148.548 314, 148.945 313.971, 150.078 311.854 C 150.710 310.674, 151.025 307.610, 150.778 305.044 C 149.876 295.654, 142.591 285.628, 133.250 280.921 C 128.826 278.691, 127.053 277.279, 127.015 275.956 C 127.007 275.656, 128.774 273.509, 130.942 271.184 C 137.373 264.287, 137.495 254.708, 131.227 248.729 C 125.955 243.699, 120.208 242.814, 113.271 245.964 M 199.288 245.629 C 197.302 246.609, 195.297 248.821, 194.038 251.422 C 192.168 255.283, 192 257.528, 192.006 278.566 C 192.009 291.180, 192.472 303.159, 193.035 305.186 C 193.598 307.213, 195.430 310.025, 197.106 311.436 C 199.811 313.712, 201.036 314, 208.005 314 C 218.276 314, 219 314.708, 219 324.756 L 219 332.368 228.365 323.184 L 237.731 314 269.965 314 L 302.200 314 305.510 310.690 C 309.891 306.309, 310.242 303.451, 309.834 275.446 C 309.541 255.306, 309.279 252.174, 307.691 249.836 C 303.730 244.001, 303.696 243.998, 250.849 244.023 C 208.783 244.043, 202.083 244.251, 199.288 245.629 M 6 382.958 L 6 391 14 391 L 22 391 22 387.500 L 22 384 199.500 384 L 377 384 377 387.500 L 377 391 385 391 L 393 391 393 382.958 L 393 374.916 385.250 375.208 L 377.500 375.500 377.187 378.750 L 376.873 382 199.500 382 L 22.127 382 21.813 378.750 L 21.500 375.500 13.750 375.208 L 6 374.916 6 382.958 M 8 383 L 8 389.100 13.750 388.800 L 19.500 388.500 19.490 383 L 19.480 377.500 13.740 377.200 L 8 376.900 8 383 M 379.694 377.750 C 379.461 378.163, 379.322 380.750, 379.385 383.500 L 379.500 388.500 385.250 388.800 L 391 389.100 391 383.050 L 391 377 385.559 377 C 382.566 377, 379.927 377.337, 379.694 377.750" stroke="none" fill="#491776" fill-rule="evenodd"/><path d="M 63 37.764 C 58.658 39.030, 56.219 40.644, 51.412 45.434 C 42.593 54.222, 40.795 59.417, 40.222 77.750 L 39.778 92 199.500 92 L 359.222 92 358.778 77.750 C 358.205 59.416, 356.406 54.221, 347.588 45.436 C 337.322 35.211, 349.657 35.987, 198.934 36.081 C 82.382 36.153, 67.915 36.332, 63 37.764 M 65.059 64.429 C 64.386 65.240, 64.127 66.826, 64.485 67.952 C 65.108 69.916, 65.873 70, 83.099 70 C 98.808 70, 101.142 69.795, 101.691 68.364 C 102.036 67.464, 101.861 66.002, 101.301 65.114 C 99.835 62.787, 66.938 62.165, 65.059 64.429" stroke="none" fill="#4fcdff" fill-rule="evenodd"/></svg>