<svg xmlns="http://www.w3.org/2000/svg" width="600" height="100" viewBox="0 0 600 100" version="1.1"><path d="M 10.640 11.773 C 10.154 12.560, 51.936 44, 53.468 44 C 53.727 44, 54.065 38.671, 54.219 32.159 L 54.500 20.318 74 34.574 C 84.725 42.415, 93.291 49.206, 93.035 49.665 C 92.528 50.576, 55.241 78, 54.510 78 C 54.263 78, 53.935 72.645, 53.781 66.099 L 53.500 54.198 42.965 61.849 C 37.171 66.057, 27.271 73.325, 20.965 78 L 9.500 86.500 18 87.151 C 31.425 88.179, 66.899 88.087, 73.500 87.007 C 92.572 83.888, 107.322 68.034, 107.430 50.538 C 107.484 41.766, 106.062 36.953, 101.187 29.410 C 96.785 22.599, 89.545 17.140, 80.500 13.810 C 74.884 11.743, 72.474 11.576, 42.867 11.208 C 23.289 10.964, 11.007 11.179, 10.640 11.773 M 123 49.599 L 123 87.198 140.250 86.784 C 155.204 86.425, 158.270 86.068, 163.285 84.100 C 171.382 80.923, 179.887 72.829, 183.585 64.782 C 186.170 59.155, 186.467 57.457, 186.428 48.500 C 186.376 36.314, 183.875 28.875, 177.783 22.783 C 169.719 14.719, 159.442 12.020, 136.750 12.008 L 123 12 123 49.599 M 219.540 13.709 C 218.562 16.191, 198.445 69.752, 194.924 79.250 L 192.050 87 198.943 87 L 205.835 87 209 77.500 L 212.165 68 226.919 68 L 241.674 68 244.948 77.500 L 248.223 87 255.111 87 C 258.900 87, 261.996 86.888, 261.991 86.750 C 261.987 86.612, 255.763 69.850, 248.161 49.500 L 234.340 12.500 227.293 12.209 C 221.285 11.960, 220.142 12.182, 219.540 13.709 M 272 49.500 L 272 87 278 87 L 284 87 284.118 59.250 C 284.184 43.987, 284.165 30.825, 284.077 30 C 283.871 28.071, 282.430 25.973, 303.873 58.839 L 322.247 87 329.123 87 L 336 87 336 49.500 L 336 12 330.015 12 L 324.031 12 323.765 40.391 L 323.500 68.782 305.156 40.391 L 286.813 12 279.406 12 L 272 12 272 49.500 M 347.416 14.702 C 347.778 16.241, 352.444 33.147, 357.787 52.271 L 367.500 87.042 374.939 86.771 C 382.270 86.504, 382.391 86.456, 383.202 83.500 C 394.638 41.808, 397.885 30.757, 398.334 32 C 398.631 32.825, 402.140 45.537, 406.132 60.250 L 413.388 87 420.694 87 C 424.712 87, 428 86.778, 428 86.508 C 428 86.237, 432.500 69.786, 438 49.950 C 443.500 30.115, 448 13.461, 448 12.943 C 448 12.424, 445.160 12, 441.689 12 L 435.378 12 427.949 42.644 C 421.430 69.531, 420.431 72.811, 419.798 69.394 C 419.402 67.252, 415.988 53.575, 412.212 39 L 405.347 12.500 398.832 12.208 L 392.318 11.916 384.159 40.801 C 379.672 56.687, 375.958 70.544, 375.908 71.593 C 375.857 72.642, 372.344 59.775, 368.102 43 L 360.388 12.500 353.574 12.202 L 346.759 11.903 347.416 14.702 M 477.556 13.709 C 475.729 18.456, 455.430 72.450, 452.916 79.250 L 450.050 87 456.943 87 L 463.835 87 467 77.500 L 470.165 68 484.919 68 L 499.674 68 502.948 77.500 L 506.223 87 513.218 87 C 519.472 87, 520.142 86.814, 519.537 85.250 C 518.804 83.354, 500.723 34.853, 495.585 21 L 492.432 12.500 485.339 12.209 C 479.282 11.960, 478.145 12.179, 477.556 13.709 M 523.014 14.536 C 523.562 15.979, 528.958 26.727, 535.005 38.422 L 546 59.684 546 73.342 L 546 87 552.500 87 L 559 87 559 72.959 L 559 58.917 571.084 35.459 L 583.169 12 576.532 12 L 569.895 12 561.301 29.958 L 552.707 47.916 544.520 30.208 L 536.334 12.500 529.175 12.206 L 522.016 11.913 523.014 14.536 M 136 49.500 L 136 76 145.250 75.990 C 152.874 75.982, 155.379 75.566, 159.500 73.623 C 169.103 69.094, 173.237 61.534, 173.100 48.751 C 172.903 30.397, 164.567 23.090, 143.750 23.024 L 136 23 136 49.500 M 221.242 40.887 C 218.350 49.474, 215.987 56.837, 215.992 57.250 C 215.996 57.663, 220.950 58, 227 58 C 233.050 58, 238 57.809, 238 57.576 C 238 56.991, 227.005 25.659, 226.725 25.445 C 226.601 25.351, 224.134 32.300, 221.242 40.887 M 479.249 41.307 C 476.362 49.663, 473.999 56.837, 473.999 57.250 C 474 57.663, 478.950 58, 485 58 C 491.050 58, 496 57.727, 496 57.394 C 496 56.336, 485.743 27.531, 485.108 26.807 C 484.774 26.425, 482.137 32.950, 479.249 41.307" stroke="none" fill="#0673c3" fill-rule="evenodd"/><path d="M 0 50.002 L 0 100.003 300.250 99.752 L 600.500 99.500 600.759 49.750 L 601.019 0 300.509 0 L 0 0 0 50.002 M 0.464 50.500 C 0.464 78, 0.592 89.106, 0.749 75.180 C 0.906 61.255, 0.906 38.755, 0.749 25.180 C 0.592 11.606, 0.464 23, 0.464 50.500 M 10.640 11.773 C 10.154 12.560, 51.936 44, 53.468 44 C 53.727 44, 54.065 38.671, 54.219 32.159 L 54.500 20.318 74 34.574 C 84.725 42.415, 93.291 49.206, 93.035 49.665 C 92.528 50.576, 55.241 78, 54.510 78 C 54.263 78, 53.935 72.645, 53.781 66.099 L 53.500 54.198 42.965 61.849 C 37.171 66.057, 27.271 73.325, 20.965 78 L 9.500 86.500 18 87.151 C 31.425 88.179, 66.899 88.087, 73.500 87.007 C 92.572 83.888, 107.322 68.034, 107.430 50.538 C 107.484 41.766, 106.062 36.953, 101.187 29.410 C 96.785 22.599, 89.545 17.140, 80.500 13.810 C 74.884 11.743, 72.474 11.576, 42.867 11.208 C 23.289 10.964, 11.007 11.179, 10.640 11.773 M 123 49.599 L 123 87.198 140.250 86.784 C 155.204 86.425, 158.270 86.068, 163.285 84.100 C 171.382 80.923, 179.887 72.829, 183.585 64.782 C 186.170 59.155, 186.467 57.457, 186.428 48.500 C 186.376 36.314, 183.875 28.875, 177.783 22.783 C 169.719 14.719, 159.442 12.020, 136.750 12.008 L 123 12 123 49.599 M 219.540 13.709 C 218.562 16.191, 198.445 69.752, 194.924 79.250 L 192.050 87 198.943 87 L 205.835 87 209 77.500 L 212.165 68 226.919 68 L 241.674 68 244.948 77.500 L 248.223 87 255.111 87 C 258.900 87, 261.996 86.888, 261.991 86.750 C 261.987 86.612, 255.763 69.850, 248.161 49.500 L 234.340 12.500 227.293 12.209 C 221.285 11.960, 220.142 12.182, 219.540 13.709 M 272 49.500 L 272 87 278 87 L 284 87 284.118 59.250 C 284.184 43.987, 284.165 30.825, 284.077 30 C 283.871 28.071, 282.430 25.973, 303.873 58.839 L 322.247 87 329.123 87 L 336 87 336 49.500 L 336 12 330.015 12 L 324.031 12 323.765 40.391 L 323.500 68.782 305.156 40.391 L 286.813 12 279.406 12 L 272 12 272 49.500 M 347.416 14.702 C 347.778 16.241, 352.444 33.147, 357.787 52.271 L 367.500 87.042 374.939 86.771 C 382.270 86.504, 382.391 86.456, 383.202 83.500 C 394.638 41.808, 397.885 30.757, 398.334 32 C 398.631 32.825, 402.140 45.537, 406.132 60.250 L 413.388 87 420.694 87 C 424.712 87, 428 86.778, 428 86.508 C 428 86.237, 432.500 69.786, 438 49.950 C 443.500 30.115, 448 13.461, 448 12.943 C 448 12.424, 445.160 12, 441.689 12 L 435.378 12 427.949 42.644 C 421.430 69.531, 420.431 72.811, 419.798 69.394 C 419.402 67.252, 415.988 53.575, 412.212 39 L 405.347 12.500 398.832 12.208 L 392.318 11.916 384.159 40.801 C 379.672 56.687, 375.958 70.544, 375.908 71.593 C 375.857 72.642, 372.344 59.775, 368.102 43 L 360.388 12.500 353.574 12.202 L 346.759 11.903 347.416 14.702 M 477.556 13.709 C 475.729 18.456, 455.430 72.450, 452.916 79.250 L 450.050 87 456.943 87 L 463.835 87 467 77.500 L 470.165 68 484.919 68 L 499.674 68 502.948 77.500 L 506.223 87 513.218 87 C 519.472 87, 520.142 86.814, 519.537 85.250 C 518.804 83.354, 500.723 34.853, 495.585 21 L 492.432 12.500 485.339 12.209 C 479.282 11.960, 478.145 12.179, 477.556 13.709 M 523.014 14.536 C 523.562 15.979, 528.958 26.727, 535.005 38.422 L 546 59.684 546 73.342 L 546 87 552.500 87 L 559 87 559 72.959 L 559 58.917 571.084 35.459 L 583.169 12 576.532 12 L 569.895 12 561.301 29.958 L 552.707 47.916 544.520 30.208 L 536.334 12.500 529.175 12.206 L 522.016 11.913 523.014 14.536 M 136 49.500 L 136 76 145.250 75.990 C 152.874 75.982, 155.379 75.566, 159.500 73.623 C 169.103 69.094, 173.237 61.534, 173.100 48.751 C 172.903 30.397, 164.567 23.090, 143.750 23.024 L 136 23 136 49.500 M 221.242 40.887 C 218.350 49.474, 215.987 56.837, 215.992 57.250 C 215.996 57.663, 220.950 58, 227 58 C 233.050 58, 238 57.809, 238 57.576 C 238 56.991, 227.005 25.659, 226.725 25.445 C 226.601 25.351, 224.134 32.300, 221.242 40.887 M 479.249 41.307 C 476.362 49.663, 473.999 56.837, 473.999 57.250 C 474 57.663, 478.950 58, 485 58 C 491.050 58, 496 57.727, 496 57.394 C 496 56.336, 485.743 27.531, 485.108 26.807 C 484.774 26.425, 482.137 32.950, 479.249 41.307" stroke="none" fill="#f9f9fa" fill-rule="evenodd"/></svg>