<svg xmlns="http://www.w3.org/2000/svg" width="600" height="184" viewBox="0 0 600 184" version="1.1"><path d="M 47.022 58.694 C 47.035 59.137, 55.247 65.440, 65.272 72.700 L 83.500 85.899 83.786 75.878 C 83.943 70.358, 84.484 66.002, 84.989 66.179 C 86.128 66.577, 119.019 90.340, 118.718 90.547 C 118.598 90.629, 110.940 96.164, 101.700 102.848 C 92.460 109.532, 84.697 115, 84.450 115 C 84.202 115, 84 110.500, 84 105 C 84 99.500, 83.781 95, 83.513 95 C 82.353 95, 47 121.294, 47 122.157 C 47 122.750, 57.919 122.996, 75.750 122.806 C 104.495 122.500, 104.501 122.500, 110.175 119.840 C 122.676 113.979, 129.203 104.674, 129.831 91.815 C 130.151 85.256, 129.841 83.333, 127.718 78.695 C 124.205 71.023, 118.852 65.545, 111.168 61.760 L 104.550 58.500 75.775 58.194 C 59.949 58.025, 47.010 58.250, 47.022 58.694 M 144 90.481 L 144 123.252 158.250 122.742 C 167.745 122.401, 174.002 121.689, 177 120.605 C 183.850 118.130, 190.902 112.211, 194.401 106 C 197.345 100.775, 197.500 99.950, 197.500 89.500 C 197.500 79.179, 197.317 78.170, 194.538 73.152 C 188.693 62.601, 180.159 59.048, 158.750 58.256 L 144 57.709 144 90.481 M 226.210 60.705 C 225.650 62.242, 220.199 76.692, 214.096 92.815 C 207.993 108.938, 203 122.326, 203 122.565 C 203 122.804, 205.646 123, 208.881 123 L 214.761 123 217.562 114.574 L 220.363 106.147 232.932 106.324 L 245.500 106.500 248.363 114.750 L 251.227 123 257.181 123 C 262.825 123, 263.099 122.888, 262.450 120.842 C 262.073 119.656, 256.688 105.143, 250.482 88.592 L 239.199 58.500 233.213 58.205 C 227.458 57.922, 227.188 58.019, 226.210 60.705 M 272 90.500 L 272 123 277 123 L 282 123 282.010 97.750 L 282.019 72.500 298.618 97.750 L 315.216 123 321.108 123 L 327 123 327 90.448 L 327 57.895 321.750 58.198 L 316.500 58.500 316.500 83.188 L 316.500 107.876 310.546 98.688 C 307.271 93.635, 299.969 82.412, 294.320 73.750 L 284.049 58 278.025 58 L 272 58 272 90.500 M 336 58.620 C 336 59.328, 348.214 103.052, 352.098 116.250 L 354.085 123 360.318 123 L 366.551 123 373.025 99.051 C 376.586 85.879, 379.776 75.417, 380.114 75.801 C 380.451 76.186, 383.560 86.963, 387.021 99.750 L 393.315 123 399.515 123 L 405.715 123 408.454 112.750 C 409.960 107.112, 413.849 92.957, 417.096 81.293 C 420.343 69.630, 423 59.617, 423 59.043 C 423 58.448, 420.687 58, 417.612 58 L 412.225 58 405.911 84.051 L 399.598 110.101 393.860 87.801 C 385.276 54.440, 386.860 58, 380.606 58 L 375.291 58 373.176 65.250 C 367.315 85.332, 360.995 108.412, 360.959 109.864 C 360.937 110.764, 357.899 99.575, 354.209 85 L 347.500 58.500 341.750 58.200 C 338.587 58.035, 336 58.224, 336 58.620 M 448.523 59.750 C 445.629 67.079, 425 122.112, 425 122.503 C 425 122.776, 427.594 123, 430.763 123 L 436.527 123 439.434 114.438 L 442.341 105.876 454.920 106.188 L 467.500 106.500 470.363 114.750 L 473.227 123 479.113 123 C 482.351 123, 485 122.830, 485 122.623 C 485 122.208, 470.033 82.006, 464.385 67.250 L 460.845 58 455.029 58 C 450.421 58, 449.071 58.363, 448.523 59.750 M 487.575 60.250 C 487.965 61.487, 492.495 70.637, 497.642 80.583 L 507 98.667 507 110.833 L 507 123 512.500 123 L 518 123 518 111.337 L 518 99.674 528.500 79.384 C 534.275 68.224, 539 58.825, 539 58.497 C 539 58.169, 536.445 58.035, 533.323 58.200 L 527.646 58.500 520.374 73.918 L 513.102 89.335 509.703 81.918 C 507.833 77.838, 504.597 70.787, 502.512 66.250 L 498.722 58 492.793 58 C 487.102 58, 486.894 58.090, 487.575 60.250 M 155 91.148 L 155 114.296 163.237 113.661 C 174.014 112.830, 179.406 110.131, 183.491 103.524 C 186.235 99.085, 186.497 97.903, 186.465 90.078 C 186.425 80.510, 185.105 76.949, 180.005 72.658 C 175.996 69.284, 171.142 68.012, 162.250 68.006 L 155 68 155 91.148 M 228.358 82.333 C 226.080 89.025, 223.895 95.287, 223.501 96.250 C 222.849 97.845, 223.638 98, 232.393 98 C 238.199 98, 242 97.600, 242 96.989 C 242 95.756, 234.347 73.437, 233.270 71.531 C 232.781 70.664, 230.991 74.599, 228.358 82.333 M 450.178 82.672 C 447.802 89.566, 445.617 95.835, 445.322 96.603 C 444.886 97.739, 446.580 98, 454.393 98 C 459.677 98, 464 97.600, 464 97.111 C 464 96.044, 456.104 73.007, 455.160 71.321 C 454.796 70.670, 452.554 75.779, 450.178 82.672" stroke="none" fill="#0773c2" fill-rule="evenodd"/><path d="M 0 92.002 L 0 184.003 300.250 183.752 L 600.500 183.500 600.755 91.750 L 601.010 0 300.505 0 L 0 0 0 92.002 M 0.479 92.500 C 0.479 143.100, 0.601 163.947, 0.750 138.826 C 0.898 113.705, 0.898 72.305, 0.750 46.826 C 0.601 21.347, 0.479 41.900, 0.479 92.500 M 47.022 58.694 C 47.035 59.137, 55.247 65.440, 65.272 72.700 L 83.500 85.899 83.786 75.878 C 83.943 70.358, 84.484 66.002, 84.989 66.179 C 86.128 66.577, 119.019 90.340, 118.718 90.547 C 118.598 90.629, 110.940 96.164, 101.700 102.848 C 92.460 109.532, 84.697 115, 84.450 115 C 84.202 115, 84 110.500, 84 105 C 84 99.500, 83.781 95, 83.513 95 C 82.353 95, 47 121.294, 47 122.157 C 47 122.750, 57.919 122.996, 75.750 122.806 C 104.495 122.500, 104.501 122.500, 110.175 119.840 C 122.676 113.979, 129.203 104.674, 129.831 91.815 C 130.151 85.256, 129.841 83.333, 127.718 78.695 C 124.205 71.023, 118.852 65.545, 111.168 61.760 L 104.550 58.500 75.775 58.194 C 59.949 58.025, 47.010 58.250, 47.022 58.694 M 144 90.481 L 144 123.252 158.250 122.742 C 167.745 122.401, 174.002 121.689, 177 120.605 C 183.850 118.130, 190.902 112.211, 194.401 106 C 197.345 100.775, 197.500 99.950, 197.500 89.500 C 197.500 79.179, 197.317 78.170, 194.538 73.152 C 188.693 62.601, 180.159 59.048, 158.750 58.256 L 144 57.709 144 90.481 M 226.210 60.705 C 225.650 62.242, 220.199 76.692, 214.096 92.815 C 207.993 108.938, 203 122.326, 203 122.565 C 203 122.804, 205.646 123, 208.881 123 L 214.761 123 217.562 114.574 L 220.363 106.147 232.932 106.324 L 245.500 106.500 248.363 114.750 L 251.227 123 257.181 123 C 262.825 123, 263.099 122.888, 262.450 120.842 C 262.073 119.656, 256.688 105.143, 250.482 88.592 L 239.199 58.500 233.213 58.205 C 227.458 57.922, 227.188 58.019, 226.210 60.705 M 272 90.500 L 272 123 277 123 L 282 123 282.010 97.750 L 282.019 72.500 298.618 97.750 L 315.216 123 321.108 123 L 327 123 327 90.448 L 327 57.895 321.750 58.198 L 316.500 58.500 316.500 83.188 L 316.500 107.876 310.546 98.688 C 307.271 93.635, 299.969 82.412, 294.320 73.750 L 284.049 58 278.025 58 L 272 58 272 90.500 M 336 58.620 C 336 59.328, 348.214 103.052, 352.098 116.250 L 354.085 123 360.318 123 L 366.551 123 373.025 99.051 C 376.586 85.879, 379.776 75.417, 380.114 75.801 C 380.451 76.186, 383.560 86.963, 387.021 99.750 L 393.315 123 399.515 123 L 405.715 123 408.454 112.750 C 409.960 107.112, 413.849 92.957, 417.096 81.293 C 420.343 69.630, 423 59.617, 423 59.043 C 423 58.448, 420.687 58, 417.612 58 L 412.225 58 405.911 84.051 L 399.598 110.101 393.860 87.801 C 385.276 54.440, 386.860 58, 380.606 58 L 375.291 58 373.176 65.250 C 367.315 85.332, 360.995 108.412, 360.959 109.864 C 360.937 110.764, 357.899 99.575, 354.209 85 L 347.500 58.500 341.750 58.200 C 338.587 58.035, 336 58.224, 336 58.620 M 448.523 59.750 C 445.629 67.079, 425 122.112, 425 122.503 C 425 122.776, 427.594 123, 430.763 123 L 436.527 123 439.434 114.438 L 442.341 105.876 454.920 106.188 L 467.500 106.500 470.363 114.750 L 473.227 123 479.113 123 C 482.351 123, 485 122.830, 485 122.623 C 485 122.208, 470.033 82.006, 464.385 67.250 L 460.845 58 455.029 58 C 450.421 58, 449.071 58.363, 448.523 59.750 M 487.575 60.250 C 487.965 61.487, 492.495 70.637, 497.642 80.583 L 507 98.667 507 110.833 L 507 123 512.500 123 L 518 123 518 111.337 L 518 99.674 528.500 79.384 C 534.275 68.224, 539 58.825, 539 58.497 C 539 58.169, 536.445 58.035, 533.323 58.200 L 527.646 58.500 520.374 73.918 L 513.102 89.335 509.703 81.918 C 507.833 77.838, 504.597 70.787, 502.512 66.250 L 498.722 58 492.793 58 C 487.102 58, 486.894 58.090, 487.575 60.250 M 155 91.148 L 155 114.296 163.237 113.661 C 174.014 112.830, 179.406 110.131, 183.491 103.524 C 186.235 99.085, 186.497 97.903, 186.465 90.078 C 186.425 80.510, 185.105 76.949, 180.005 72.658 C 175.996 69.284, 171.142 68.012, 162.250 68.006 L 155 68 155 91.148 M 228.358 82.333 C 226.080 89.025, 223.895 95.287, 223.501 96.250 C 222.849 97.845, 223.638 98, 232.393 98 C 238.199 98, 242 97.600, 242 96.989 C 242 95.756, 234.347 73.437, 233.270 71.531 C 232.781 70.664, 230.991 74.599, 228.358 82.333 M 450.178 82.672 C 447.802 89.566, 445.617 95.835, 445.322 96.603 C 444.886 97.739, 446.580 98, 454.393 98 C 459.677 98, 464 97.600, 464 97.111 C 464 96.044, 456.104 73.007, 455.160 71.321 C 454.796 70.670, 452.554 75.779, 450.178 82.672" stroke="none" fill="#fbfbfb" fill-rule="evenodd"/></svg>